<?xml version="1.0" encoding="utf-8"?>
<!-- Generator: Adobe Illustrator 23.0.3, SVG Export Plug-In . SVG Version: 6.00 Build 0)  -->
<svg version="1.1" id="Camada_1" xmlns="http://www.w3.org/2000/svg" xmlns:xlink="http://www.w3.org/1999/xlink" x="0px" y="0px"
	 viewBox="0 0 141.73 42.52" style="enable-background:new 0 0 141.73 42.52;" xml:space="preserve">
<style type="text/css">
	.st0{fill-rule:evenodd;clip-rule:evenodd;fill:#666666;}
	.st1{fill:#666666;}
</style>
<g>
	<g>
		<polygon class="st0" points="89.77,18.62 93.1,20.51 93.13,24.34 89.82,26.28 86.5,24.39 86.47,20.56 89.77,18.62 		"/>
		<polygon class="st0" points="86.13,34.55 90.08,32.23 90.05,27.65 86.07,25.39 82.11,27.7 82.15,32.29 86.13,34.55 		"/>
		<polygon class="st0" points="78.89,26.54 81.46,28 81.48,30.97 78.93,32.47 76.35,31 76.33,28.04 78.89,26.54 		"/>
		<polygon class="st0" points="72.64,18.64 76.59,20.88 76.62,25.43 72.7,27.73 68.75,25.49 68.72,20.94 72.64,18.64 		"/>
		<polygon class="st0" points="76.64,12.54 79.84,14.36 79.86,18.04 76.69,19.9 73.49,18.08 73.47,14.41 76.64,12.54 		"/>
		<polygon class="st0" points="86.38,19.86 91.5,16.85 91.46,10.91 86.29,7.97 81.16,10.98 81.2,16.92 86.38,19.86 		"/>
	</g>
	<g>
		<g>
			<path class="st1" d="M100.19,12.55v9.89c0,2.99,1.15,4.5,3.12,4.5c2.04,0,3.17-1.43,3.17-4.5v-9.89h3.89v9.66
				c0,5.32-2.69,7.85-7.19,7.85c-4.35,0-6.88-2.43-6.88-7.9v-9.61H100.19z"/>
			<path class="st1" d="M113.76,12.55h10.51v3.2h-6.62v3.94h6.19v3.17h-6.19v6.93h-3.89V12.55z"/>
			<path class="st1" d="M141.6,28.98c-1.2,0.41-3.48,0.97-5.75,0.97c-3.15,0-5.42-0.79-7.01-2.3c-1.56-1.51-2.43-3.76-2.43-6.29
				c0.03-5.73,4.19-9,9.84-9c2.22,0,3.94,0.44,4.78,0.82l-0.82,3.14c-0.95-0.43-2.1-0.74-3.99-0.74c-3.24,0-5.72,1.84-5.72,5.57
				c0,3.58,2.25,5.65,5.45,5.65c0.87,0,1.59-0.1,1.89-0.23v-3.63h-2.66v-3.04h6.42V28.98z"/>
		</g>
	</g>
</g>
<g>
	<g>
		<path class="st1" d="M14.02,29.34c-0.73,0.36-2.35,0.76-4.42,0.76c-5.41,0-8.7-3.39-8.7-8.59c0-5.61,3.92-9,9.13-9
			c2.05,0,3.49,0.43,4.12,0.76l-0.66,2.48c-0.81-0.35-1.94-0.66-3.33-0.66c-3.46,0-5.96,2.17-5.96,6.27c0,3.77,2.17,6.14,5.94,6.14
			c1.24,0,2.55-0.25,3.39-0.61L14.02,29.34z"/>
		<path class="st1" d="M22.32,12.78v17.04h-3.11V12.78H22.32z"/>
		<path class="st1" d="M31.82,24.99l-1.47,4.83h-3.21l5.46-17.04h3.97l5.54,17.04h-3.36l-1.54-4.83H31.82z M36.7,22.64l-1.34-4.2
			c-0.33-1.04-0.61-2.2-0.86-3.19h-0.05c-0.25,0.99-0.53,2.17-0.81,3.19l-1.31,4.2H36.7z"/>
		<path class="st1" d="M47.02,13.03c1.19-0.23,2.91-0.38,4.7-0.38c2.45,0,4.09,0.41,5.26,1.37c0.94,0.78,1.47,1.97,1.47,3.44
			c0,2.2-1.49,3.69-3.11,4.25v0.07c1.24,0.45,1.97,1.65,2.37,3.29c0.56,2.12,1.01,4.09,1.34,4.75h-3.18
			c-0.25-0.5-0.68-1.89-1.14-4.02c-0.5-2.22-1.29-2.93-3.06-2.98H50.1v7h-3.09V13.03z M50.1,20.54h1.85c2.1,0,3.39-1.11,3.39-2.81
			c0-1.85-1.29-2.73-3.31-2.73c-0.99,0-1.62,0.08-1.92,0.15V20.54z"/>
	</g>
</g>
</svg>
