<?xml version="1.0" encoding="utf-8"?>
<!-- Generator: Adobe Illustrator 23.0.3, SVG Export Plug-In . SVG Version: 6.00 Build 0)  -->
<svg version="1.1" id="Camada_1" xmlns="http://www.w3.org/2000/svg" xmlns:xlink="http://www.w3.org/1999/xlink" x="0px" y="0px"
	 viewBox="0 0 137.33 26.58" style="enable-background:new 0 0 137.33 26.58;" xml:space="preserve">
<style type="text/css">
	.st0{fill-rule:evenodd;clip-rule:evenodd;fill:#FFFFFF;}
	.st1{fill:#FFFFFF;}
</style>
<g>
	<g>
		<g>
			<polygon class="st0" points="85.5,10.65 88.83,12.54 88.86,16.37 85.55,18.31 82.22,16.42 82.19,12.59 85.5,10.65 			"/>
			<polygon class="st0" points="81.86,26.58 85.81,24.26 85.78,19.68 81.79,17.42 77.84,19.74 77.87,24.32 81.86,26.58 			"/>
			<polygon class="st0" points="74.61,18.57 77.19,20.03 77.21,23 74.65,24.5 72.08,23.03 72.06,20.07 74.61,18.57 			"/>
			<polygon class="st0" points="68.36,10.67 72.32,12.92 72.35,17.46 68.43,19.76 64.48,17.52 64.44,12.97 68.36,10.67 			"/>
			<polygon class="st0" points="72.37,4.57 75.56,6.39 75.59,10.07 72.42,11.93 69.22,10.11 69.2,6.44 72.37,4.57 			"/>
			<polygon class="st0" points="82.1,11.89 87.23,8.88 87.19,2.94 82.02,0 76.89,3.01 76.93,8.96 82.1,11.89 			"/>
		</g>
		<g>
			<g>
				<path class="st1" d="M95.92,4.58v9.89c0,2.99,1.15,4.5,3.12,4.5c2.04,0,3.17-1.43,3.17-4.5V4.58h3.89v9.66
					c0,5.32-2.69,7.85-7.19,7.85c-4.35,0-6.88-2.43-6.88-7.9V4.58H95.92z"/>
				<path class="st1" d="M109.49,4.58H120v3.2h-6.62v3.94h6.19v3.17h-6.19v6.93h-3.89V4.58z"/>
				<path class="st1" d="M137.33,21.02c-1.2,0.41-3.48,0.97-5.75,0.97c-3.15,0-5.42-0.79-7.01-2.3c-1.56-1.51-2.43-3.76-2.43-6.29
					c0.03-5.73,4.19-9,9.84-9c2.22,0,3.94,0.44,4.78,0.82l-0.82,3.14c-0.95-0.44-2.1-0.74-3.99-0.74c-3.24,0-5.72,1.84-5.72,5.57
					c0,3.58,2.25,5.65,5.45,5.65c0.87,0,1.59-0.1,1.89-0.23v-3.63h-2.66v-3.04h6.42V21.02z"/>
			</g>
		</g>
	</g>
</g>
<g>
	<path class="st1" d="M3.16,4.47v17.29H0V4.47H3.16z"/>
	<path class="st1" d="M6.78,4.7C7.93,4.5,9.5,4.35,11.6,4.35c2.31,0,3.98,0.49,5.08,1.41c1.03,0.85,1.69,2.21,1.69,3.82
		c0,1.64-0.51,2.98-1.46,3.9c-1.28,1.26-3.23,1.87-5.47,1.87c-0.59,0-1.1-0.03-1.54-0.13v6.54H6.78V4.7z M9.91,12.74
		c0.41,0.13,0.9,0.15,1.54,0.15c2.36,0,3.8-1.18,3.8-3.18c0-1.92-1.33-2.93-3.52-2.93c-0.87,0-1.49,0.08-1.82,0.15V12.74z"/>
	<path class="st1" d="M24.43,7.12h-4.93V4.47h13.06v2.64h-4.98v14.65h-3.16V7.12z"/>
	<path class="st1" d="M34.34,18.33c1,0.59,2.57,1.1,4.18,1.1c2,0,3.13-0.95,3.13-2.36c0-1.31-0.87-2.08-3.05-2.87
		c-2.87-1.03-4.7-2.54-4.7-5.03c0-2.85,2.36-4.98,6.13-4.98c1.87,0,3.23,0.41,4.13,0.87L43.42,7.6c-0.64-0.33-1.85-0.82-3.46-0.82
		c-2,0-2.85,1.05-2.85,2.08c0,1.33,1,1.95,3.31,2.85c3,1.13,4.44,2.64,4.44,5.13c0,2.8-2.1,5.21-6.54,5.21
		c-1.85,0-3.75-0.51-4.7-1.1L34.34,18.33z"/>
	<path class="st1" d="M47.71,4.7c1.16-0.21,2.72-0.36,4.82-0.36c2.31,0,3.98,0.49,5.08,1.41c1.03,0.85,1.69,2.21,1.69,3.82
		c0,1.64-0.51,2.98-1.46,3.9c-1.28,1.26-3.23,1.87-5.47,1.87c-0.59,0-1.1-0.03-1.54-0.13v6.54h-3.13V4.7z M50.84,12.74
		c0.41,0.13,0.9,0.15,1.54,0.15c2.36,0,3.8-1.18,3.8-3.18c0-1.92-1.33-2.93-3.52-2.93c-0.87,0-1.49,0.08-1.82,0.15V12.74z"/>
</g>
</svg>
