<?xml version="1.0" encoding="utf-8"?>
<!-- Generator: Adobe Illustrator 23.0.3, SVG Export Plug-In . SVG Version: 6.00 Build 0)  -->
<svg version="1.1" id="Camada_1" xmlns="http://www.w3.org/2000/svg" xmlns:xlink="http://www.w3.org/1999/xlink" x="0px" y="0px"
	 viewBox="0 0 234.51 172.4" style="enable-background:new 0 0 234.51 172.4;" xml:space="preserve">
<style type="text/css">
	.st0{fill:#FFFFFF;}
</style>
<g>
	<path class="st0" d="M183.37,26.07c-1.49-1.08-3.87-1.44-5.74,1.03l-17.65,25.22c-0.32,0.46-0.96,0.57-1.42,0.25
		c-0.46-0.32-0.57-0.96-0.25-1.42l17.62-25.17c-0.8-0.81-1.88-1.26-2.96-1.22c-1.61,0.06-3.23,1.19-4.67,3.26l-15.61,22.3
		c-0.32,0.46-0.96,0.57-1.42,0.25c-0.46-0.32-0.57-0.96-0.25-1.42l14.35-20.51c-1.43-0.83-3.05-0.96-5.18,2.08l-11.96,17.09
		c-0.38,0.54-1.17,1.67-2,1.08c-0.46-0.32-0.57-0.96-0.25-1.42l11.81-16.87c-1.23-0.51-2.28,0.36-3.51,1.91l-1.19,1.49
		c-3.72,4.69-7.57,9.53-12.38,13.41c-2.21,1.78-4.59,3.38-6.9,4.93c-2.55,1.71-5.15,3.48-7.55,5.5l0,13.47c0,0.18,0,0.37,0.01,0.55
		c0.01,0.54,0.02,1.09-0.05,1.66c-0.32,2.58-1.88,4.09-4.18,4.09c-0.08,0-0.17,0-0.25-0.01c-2.53-0.12-4.12-1.81-4.13-4.41
		c-0.02-4.05-0.02-8.1-0.02-12.14c-0.53,0.01-1.05,0.01-1.57-0.02l0,2.48c0,3.15-0.01,6.3,0,9.46c0.01,3.15-1.36,4.81-4.06,4.95
		c-0.1,0-0.21,0.01-0.31,0.01c-1.13,0-2.06-0.33-2.76-1c-0.89-0.84-1.34-2.17-1.34-3.96c-0.01-3.93-0.02-9.32-0.02-14.84l0-0.87
		c-2.2-1.78-4.57-3.37-6.87-4.92c-2.3-1.55-4.68-3.14-6.9-4.93c-4.81-3.88-8.66-8.72-12.38-13.41l-1.19-1.49
		c-1.24-1.55-2.28-2.42-3.51-1.91l11.81,16.87c0.32,0.46,0.21,1.1-0.25,1.42c-0.83,0.58-1.62-0.54-2-1.08L74.32,30.73
		c-2.13-3.04-3.76-2.91-5.18-2.08l14.35,20.51c0.32,0.46,0.21,1.1-0.25,1.42c-0.46,0.32-1.1,0.21-1.42-0.25l-15.61-22.3
		c-1.45-2.07-3.06-3.19-4.67-3.26c-1.08-0.04-2.16,0.41-2.96,1.22L76.2,51.16c0.32,0.46,0.21,1.1-0.25,1.42
		c-0.46,0.32-1.1,0.21-1.42-0.25L56.88,27.1c-1.87-2.47-4.25-2.11-5.74-1.03c-1.69,1.23-2.63,3.59-1.15,5.74l0.94,1.36
		c1.29,1.87,2.46,3.55,3.55,5.14L64.76,53l0.19,0.23c0.26,0.31,0.53,0.63,0.87,1.01c3.25,3.71,5.4,6.16,9.63,5.66
		c15.35-1.8,21.18,6.26,21.42,6.6c0.32,0.46,0.21,1.1-0.25,1.42c-0.46,0.32-1.09,0.21-1.42-0.25c-0.01-0.02-1.38-1.88-4.49-3.51
		c-2.83-1.49-7.74-3.09-15.03-2.23c-5.3,0.62-8.12-2.6-11.4-6.34c-0.36-0.41-0.67-0.86-0.98-1.29c-0.34-0.49-0.7-0.99-1.12-1.45
		c-1.12-0.27-2.22-0.06-3.09,0.55c-0.35,0.24-0.66,0.55-0.92,0.91c-0.91,1.27-1.33,3.46,0.24,5.8c5.94,8.85,13.18,18.6,23.85,22.34
		c2.21,0.77,4.51,1.33,6.73,1.86c1.1,0.27,8.35,2.08,17.32,3.08l7.51-7.51c1.99-1.99,5.21-1.99,7.2,0l7.47,7.47
		c8.83-1,15.93-2.78,16.99-3.04c2.22-0.54,4.53-1.09,6.73-1.86c10.67-3.74,17.91-13.49,23.85-22.34c1.57-2.33,1.15-4.52,0.24-5.8
		c-0.26-0.36-0.57-0.67-0.92-0.91c-0.87-0.61-1.97-0.82-3.09-0.55c-0.42,0.46-0.78,0.97-1.12,1.45c-0.31,0.43-0.62,0.88-0.98,1.29
		c-3.27,3.73-6.1,6.96-11.4,6.34c-7.29-0.85-12.19,0.74-15.03,2.23c-3.11,1.64-4.48,3.5-4.49,3.51c-0.32,0.46-0.96,0.57-1.42,0.25
		c-0.46-0.32-0.57-0.96-0.25-1.42c0.24-0.34,6.07-8.4,21.42-6.6c4.23,0.5,6.38-1.95,9.63-5.66c0.33-0.38,0.61-0.71,0.87-1.01
		l0.19-0.23l10.28-14.69c1.09-1.59,2.25-3.28,3.55-5.14l0.94-1.36C186.01,29.66,185.07,27.3,183.37,26.07z"/>
	<g>
		<path class="st0" d="M118.64,50.22c-1.32,0-2.25,0-3.43,0c-0.05,1.14-0.14,2.16-0.14,3.17c-0.01,6.53-0.02,13.05,0,19.58
			c0.01,2.17-0.6,3.82-3.11,3.95c-2.2,0.11-3.35-1.19-3.36-3.95c-0.03-12.18-0.02-38.35-0.02-39.25c-0.22-0.03-0.45-0.05-0.67-0.08
			c-0.96,3.82-1.98,7.63-2.85,11.47c-0.46,2.04-1.19,3.51-3.65,2.89c-2.48-0.62-2.37-2.44-1.92-4.35c1.87-7.87,3.8-15.72,5.64-23.59
			c0.53-2.28,1.6-3.37,4.14-3.28c5.13,0.18,10.27,0.13,15.4,0.01c2.15-0.05,3.17,0.85,3.65,2.84c1.92,8.12,3.91,16.23,5.84,24.35
			c0.45,1.88,0.26,3.51-2.05,4.04c-2.31,0.52-3.1-0.83-3.55-2.76c-0.85-3.68-1.78-7.34-2.67-11.01c-0.21,0.03-0.42,0.05-0.63,0.08
			c0,0.92,0,25.58,0,36.98c0,0.7,0.05,1.4-0.03,2.09c-0.25,1.98-1.31,3.3-3.39,3.21c-2.02-0.09-3.16-1.36-3.17-3.42
			c-0.03-6.53-0.02-13.05-0.02-19.58C118.63,52.59,118.64,51.56,118.64,50.22z"/>
		<circle class="st0" cx="116.79" cy="7.06" r="7.06"/>
	</g>
</g>
<g>
	<path class="st0" d="M41.6,102.6h-7.72c-0.07,0-0.11,0.04-0.11,0.11v5.75c0,0.07,0.04,0.11,0.11,0.11h5.08
		c0.18,0,0.27,0.09,0.27,0.27v1.68c0,0.18-0.09,0.27-0.27,0.27h-5.08c-0.07,0-0.11,0.04-0.11,0.11v5.83c0,0.07,0.04,0.11,0.11,0.11
		h7.72c0.18,0,0.27,0.09,0.27,0.27v1.68c0,0.18-0.09,0.27-0.27,0.27H31.48c-0.18,0-0.27-0.09-0.27-0.27v-18.1
		c0-0.18,0.09-0.27,0.27-0.27H41.6c0.18,0,0.27,0.09,0.27,0.27v1.68C41.86,102.52,41.77,102.6,41.6,102.6z"/>
	<path class="st0" d="M53.38,106.49c0.72,0.8,1.08,1.9,1.08,3.3v8.97c0,0.18-0.09,0.27-0.27,0.27h-2.02c-0.18,0-0.27-0.09-0.27-0.27
		v-8.6c0-0.82-0.21-1.46-0.63-1.94s-0.98-0.72-1.69-0.72c-0.73,0-1.31,0.24-1.74,0.73c-0.44,0.49-0.65,1.14-0.65,1.96v8.57
		c0,0.18-0.09,0.27-0.27,0.27H44.9c-0.18,0-0.27-0.09-0.27-0.27v-13.02c0-0.18,0.09-0.27,0.27-0.27h2.02c0.18,0,0.27,0.09,0.27,0.27
		v0.83c0,0.05,0.01,0.08,0.04,0.09c0.03,0.01,0.06-0.01,0.09-0.07c0.69-0.87,1.7-1.3,3.03-1.3
		C51.65,105.29,52.66,105.69,53.38,106.49z"/>
	<path class="st0" d="M61.47,103.07c-0.29,0.36-0.44,0.98-0.44,1.85v0.45c0,0.07,0.04,0.11,0.11,0.11h2.32
		c0.18,0,0.27,0.09,0.27,0.27v1.57c0,0.18-0.09,0.27-0.27,0.27h-2.32c-0.07,0-0.11,0.04-0.11,0.11v11.07c0,0.18-0.09,0.27-0.27,0.27
		h-2.02c-0.18,0-0.27-0.09-0.27-0.27v-11.07c0-0.07-0.04-0.11-0.11-0.11h-1.38c-0.18,0-0.27-0.09-0.27-0.27v-1.57
		c0-0.18,0.09-0.27,0.27-0.27h1.38c0.07,0,0.11-0.04,0.11-0.11v-0.59c0-1.12,0.14-2,0.43-2.65s0.74-1.11,1.37-1.4s1.5-0.43,2.6-0.43
		h0.61c0.18,0,0.27,0.09,0.27,0.27l-0.03,1.68c0,0.18-0.09,0.27-0.27,0.27H63C62.27,102.52,61.76,102.71,61.47,103.07z"/>
	<path class="st0" d="M73.25,105.67c0.12,0.05,0.17,0.16,0.13,0.32l-0.4,2.02c-0.02,0.18-0.12,0.23-0.32,0.16
		c-0.27-0.09-0.56-0.13-0.88-0.13c-0.23,0-0.4,0.01-0.51,0.03c-0.69,0.05-1.27,0.37-1.73,0.95c-0.46,0.58-0.69,1.26-0.69,2.06v7.69
		c0,0.18-0.09,0.27-0.27,0.27h-2.02c-0.18,0-0.27-0.09-0.27-0.27v-13.02c0-0.18,0.09-0.27,0.27-0.27h2.02
		c0.18,0,0.27,0.09,0.27,0.27v1.7c0,0.05,0.01,0.08,0.04,0.09c0.03,0.01,0.05,0,0.07-0.04c0.64-1.44,1.61-2.16,2.93-2.16
		C72.42,105.35,72.88,105.45,73.25,105.67z"/>
	<path class="st0" d="M81.62,116.6c0.42-0.29,0.73-0.7,0.94-1.21c0.05-0.16,0.16-0.22,0.32-0.19l1.81,0.4
		c0.18,0.05,0.24,0.16,0.19,0.32c-0.34,1.05-0.92,1.86-1.76,2.45c-0.83,0.59-1.85,0.88-3.06,0.88c-1.38,0-2.5-0.35-3.35-1.04
		s-1.39-1.64-1.62-2.85c-0.09-0.5-0.15-1.03-0.17-1.58c-0.03-0.56-0.04-1.3-0.04-2.22c0-0.91,0.04-1.62,0.13-2.16
		c0.16-1.24,0.68-2.24,1.57-2.99c0.89-0.75,2.01-1.13,3.35-1.13c1.47,0,2.66,0.42,3.57,1.25c0.91,0.83,1.41,1.93,1.52,3.3
		c0.05,0.6,0.08,1.71,0.08,3.33c0,0.18-0.09,0.27-0.27,0.27h-7.29c-0.07,0-0.11,0.04-0.11,0.11c0,0.5,0.03,0.93,0.08,1.3
		c0.09,0.66,0.36,1.19,0.83,1.6c0.46,0.41,1.05,0.61,1.76,0.61C80.69,117.03,81.21,116.89,81.62,116.6z M78.29,108.09
		c-0.44,0.41-0.7,0.94-0.79,1.6c-0.05,0.48-0.08,1-0.08,1.57c0,0.07,0.04,0.11,0.11,0.11h4.9c0.07,0,0.11-0.04,0.11-0.11
		c-0.04-0.71-0.07-1.22-0.11-1.54c-0.09-0.66-0.35-1.19-0.8-1.61c-0.44-0.42-1-0.62-1.68-0.62
		C79.28,107.48,78.73,107.68,78.29,108.09z"/>
	<path class="st0" d="M96.64,106.49c0.72,0.8,1.08,1.9,1.08,3.3v8.97c0,0.18-0.09,0.27-0.27,0.27h-2.02c-0.18,0-0.27-0.09-0.27-0.27
		v-8.6c0-0.82-0.21-1.46-0.63-1.94s-0.98-0.72-1.69-0.72c-0.73,0-1.31,0.24-1.74,0.73c-0.44,0.49-0.65,1.14-0.65,1.96v8.57
		c0,0.18-0.09,0.27-0.27,0.27h-2.02c-0.18,0-0.27-0.09-0.27-0.27v-13.02c0-0.18,0.09-0.27,0.27-0.27h2.02
		c0.18,0,0.27,0.09,0.27,0.27v0.83c0,0.05,0.01,0.08,0.04,0.09c0.03,0.01,0.06-0.01,0.09-0.07c0.69-0.87,1.7-1.3,3.03-1.3
		C94.91,105.29,95.92,105.69,96.64,106.49z"/>
	<path class="st0" d="M106.58,107.45h-2.37c-0.07,0-0.11,0.04-0.11,0.11v7.29c0,0.73,0.15,1.24,0.44,1.53
		c0.29,0.29,0.75,0.44,1.37,0.44h0.51c0.18,0,0.27,0.09,0.27,0.27v1.68c0,0.18-0.09,0.27-0.27,0.27l-1.04,0.03
		c-1.24,0-2.18-0.23-2.81-0.71c-0.63-0.47-0.95-1.34-0.95-2.62v-8.17c0-0.07-0.04-0.11-0.11-0.11h-1.3c-0.18,0-0.27-0.09-0.27-0.27
		v-1.44c0-0.18,0.09-0.27,0.27-0.27h1.3c0.07,0,0.11-0.04,0.11-0.11v-3.06c0-0.18,0.09-0.27,0.27-0.27h1.94
		c0.18,0,0.27,0.09,0.27,0.27v3.06c0,0.07,0.04,0.11,0.11,0.11h2.37c0.18,0,0.27,0.09,0.27,0.27v1.44
		C106.85,107.36,106.76,107.45,106.58,107.45z"/>
	<path class="st0" d="M117.63,106.51c0.89,0.83,1.33,1.9,1.33,3.23v9.02c0,0.18-0.09,0.27-0.27,0.27h-2.02
		c-0.18,0-0.27-0.09-0.27-0.27v-0.77c0-0.04-0.01-0.06-0.04-0.07c-0.03-0.01-0.06,0-0.09,0.04c-0.8,0.85-1.91,1.28-3.33,1.28
		c-1.15,0-2.14-0.31-2.96-0.95c-0.82-0.63-1.22-1.65-1.22-3.05c0-1.46,0.47-2.56,1.42-3.31c0.95-0.75,2.24-1.13,3.87-1.13h2.24
		c0.07,0,0.11-0.04,0.11-0.11v-0.75c0-0.76-0.2-1.37-0.6-1.81c-0.4-0.44-0.97-0.67-1.72-0.67c-0.59,0-1.07,0.15-1.45,0.44
		c-0.38,0.29-0.62,0.69-0.71,1.19c-0.02,0.16-0.12,0.24-0.29,0.24l-2.18-0.13c-0.07,0-0.13-0.02-0.19-0.07
		c-0.05-0.04-0.07-0.1-0.05-0.17c0.11-1.1,0.61-1.99,1.5-2.67c0.9-0.68,2.02-1.03,3.37-1.03
		C115.56,105.27,116.74,105.68,117.63,106.51z M115.54,116.39c0.58-0.44,0.87-1.04,0.87-1.78v-1.7c0-0.07-0.04-0.11-0.11-0.11h-2.05
		c-0.87,0-1.57,0.2-2.09,0.59s-0.79,0.96-0.79,1.7c0,0.66,0.2,1.15,0.59,1.48c0.39,0.33,0.91,0.49,1.54,0.49
		C114.28,117.06,114.96,116.84,115.54,116.39z"/>
	<path class="st0" d="M137.58,106.49c0.68,0.8,1.02,1.91,1.02,3.33v8.94c0,0.18-0.09,0.27-0.27,0.27h-2c-0.18,0-0.27-0.09-0.27-0.27
		v-8.57c0-0.83-0.2-1.49-0.6-1.97s-0.95-0.72-1.64-0.72c-0.69,0-1.25,0.24-1.66,0.71c-0.42,0.47-0.63,1.11-0.63,1.93v8.62
		c0,0.18-0.09,0.27-0.27,0.27h-2c-0.18,0-0.27-0.09-0.27-0.27v-8.57c0-0.83-0.2-1.49-0.61-1.97s-0.95-0.72-1.62-0.72
		c-0.69,0-1.25,0.24-1.66,0.71c-0.42,0.47-0.62,1.11-0.62,1.93v8.62c0,0.18-0.09,0.27-0.27,0.27h-2c-0.18,0-0.27-0.09-0.27-0.27
		v-13.02c0-0.18,0.09-0.27,0.27-0.27h2c0.18,0,0.27,0.09,0.27,0.27v0.8c0,0.04,0.01,0.06,0.04,0.08c0.03,0.02,0.06,0.01,0.09-0.03
		c0.73-0.87,1.74-1.3,3.04-1.3c0.78,0,1.46,0.16,2.02,0.48c0.57,0.32,1,0.79,1.3,1.41c0.05,0.07,0.11,0.06,0.16-0.03
		c0.39-0.64,0.9-1.11,1.53-1.41c0.63-0.3,1.3-0.45,2.01-0.45C135.94,105.29,136.9,105.69,137.58,106.49z"/>
	<path class="st0" d="M148.1,116.6c0.42-0.29,0.73-0.7,0.95-1.21c0.05-0.16,0.16-0.22,0.32-0.19l1.81,0.4
		c0.18,0.05,0.24,0.16,0.19,0.32c-0.34,1.05-0.92,1.86-1.76,2.45c-0.83,0.59-1.85,0.88-3.06,0.88c-1.38,0-2.5-0.35-3.35-1.04
		s-1.39-1.64-1.62-2.85c-0.09-0.5-0.15-1.03-0.17-1.58c-0.03-0.56-0.04-1.3-0.04-2.22c0-0.91,0.04-1.62,0.13-2.16
		c0.16-1.24,0.68-2.24,1.57-2.99c0.89-0.75,2-1.13,3.35-1.13c1.47,0,2.66,0.42,3.57,1.25c0.91,0.83,1.41,1.93,1.52,3.3
		c0.05,0.6,0.08,1.71,0.08,3.33c0,0.18-0.09,0.27-0.27,0.27h-7.29c-0.07,0-0.11,0.04-0.11,0.11c0,0.5,0.03,0.93,0.08,1.3
		c0.09,0.66,0.36,1.19,0.83,1.6c0.46,0.41,1.05,0.61,1.76,0.61C147.17,117.03,147.68,116.89,148.1,116.6z M144.77,108.09
		c-0.43,0.41-0.7,0.94-0.79,1.6c-0.05,0.48-0.08,1-0.08,1.57c0,0.07,0.04,0.11,0.11,0.11h4.9c0.07,0,0.11-0.04,0.11-0.11
		c-0.04-0.71-0.07-1.22-0.11-1.54c-0.09-0.66-0.36-1.19-0.8-1.61c-0.44-0.42-1-0.62-1.68-0.62
		C145.76,107.48,145.2,107.68,144.77,108.09z"/>
	<path class="st0" d="M163.11,106.49c0.72,0.8,1.08,1.9,1.08,3.3v8.97c0,0.18-0.09,0.27-0.27,0.27h-2.02
		c-0.18,0-0.27-0.09-0.27-0.27v-8.6c0-0.82-0.21-1.46-0.62-1.94c-0.42-0.48-0.98-0.72-1.69-0.72c-0.73,0-1.31,0.24-1.74,0.73
		c-0.44,0.49-0.65,1.14-0.65,1.96v8.57c0,0.18-0.09,0.27-0.27,0.27h-2.02c-0.18,0-0.27-0.09-0.27-0.27v-13.02
		c0-0.18,0.09-0.27,0.27-0.27h2.02c0.18,0,0.27,0.09,0.27,0.27v0.83c0,0.05,0.01,0.08,0.04,0.09c0.03,0.01,0.06-0.01,0.09-0.07
		c0.69-0.87,1.7-1.3,3.04-1.3C161.39,105.29,162.39,105.69,163.11,106.49z"/>
	<path class="st0" d="M173.06,107.45h-2.37c-0.07,0-0.11,0.04-0.11,0.11v7.29c0,0.73,0.15,1.24,0.44,1.53
		c0.29,0.29,0.75,0.44,1.37,0.44h0.51c0.18,0,0.27,0.09,0.27,0.27v1.68c0,0.18-0.09,0.27-0.27,0.27l-1.04,0.03
		c-1.24,0-2.18-0.23-2.81-0.71c-0.63-0.47-0.94-1.34-0.94-2.62v-8.17c0-0.07-0.04-0.11-0.11-0.11h-1.3c-0.18,0-0.27-0.09-0.27-0.27
		v-1.44c0-0.18,0.09-0.27,0.27-0.27h1.3c0.07,0,0.11-0.04,0.11-0.11v-3.06c0-0.18,0.09-0.27,0.27-0.27h1.94
		c0.18,0,0.27,0.09,0.27,0.27v3.06c0,0.07,0.04,0.11,0.11,0.11h2.37c0.18,0,0.27,0.09,0.27,0.27v1.44
		C173.32,107.36,173.23,107.45,173.06,107.45z"/>
	<path class="st0" d="M177.24,118.17c-0.89-0.72-1.42-1.7-1.6-2.94c-0.14-0.89-0.21-1.88-0.21-2.98c0-1.12,0.07-2.1,0.21-2.96
		c0.18-1.22,0.71-2.2,1.6-2.93c0.89-0.73,2.02-1.09,3.41-1.09c1.37,0,2.49,0.36,3.38,1.09s1.42,1.69,1.6,2.9
		c0.14,0.76,0.21,1.76,0.21,2.98s-0.07,2.22-0.21,2.98c-0.18,1.24-0.71,2.22-1.58,2.94c-0.88,0.72-2.01,1.08-3.39,1.08
		S178.12,118.88,177.24,118.17z M182.31,116.42c0.45-0.41,0.73-0.95,0.84-1.62c0.09-0.8,0.13-1.65,0.13-2.56
		c0-0.92-0.04-1.77-0.13-2.53c-0.11-0.67-0.39-1.22-0.84-1.62c-0.45-0.41-1.02-0.61-1.69-0.61c-0.66,0-1.21,0.2-1.66,0.61
		c-0.45,0.41-0.73,0.95-0.84,1.62c-0.07,0.62-0.11,1.46-0.11,2.53c0,1.08,0.04,1.94,0.11,2.56c0.11,0.67,0.39,1.22,0.84,1.62
		c0.45,0.41,1.02,0.61,1.69,0.61C181.3,117.03,181.85,116.83,182.31,116.42z"/>
	<path class="st0" d="M200.57,116.6c0.42-0.29,0.73-0.7,0.95-1.21c0.05-0.16,0.16-0.22,0.32-0.19l1.81,0.4
		c0.18,0.05,0.24,0.16,0.19,0.32c-0.34,1.05-0.92,1.86-1.76,2.45c-0.83,0.59-1.85,0.88-3.06,0.88c-1.38,0-2.5-0.35-3.35-1.04
		s-1.39-1.64-1.62-2.85c-0.09-0.5-0.15-1.03-0.17-1.58c-0.03-0.56-0.04-1.3-0.04-2.22c0-0.91,0.04-1.62,0.13-2.16
		c0.16-1.24,0.68-2.24,1.57-2.99c0.89-0.75,2-1.13,3.35-1.13c1.47,0,2.66,0.42,3.57,1.25c0.91,0.83,1.41,1.93,1.52,3.3
		c0.05,0.6,0.08,1.71,0.08,3.33c0,0.18-0.09,0.27-0.27,0.27h-7.29c-0.07,0-0.11,0.04-0.11,0.11c0,0.5,0.03,0.93,0.08,1.3
		c0.09,0.66,0.36,1.19,0.83,1.6c0.46,0.41,1.05,0.61,1.76,0.61C199.64,117.03,200.15,116.89,200.57,116.6z M197.24,108.09
		c-0.43,0.41-0.7,0.94-0.79,1.6c-0.05,0.48-0.08,1-0.08,1.57c0,0.07,0.04,0.11,0.11,0.11h4.9c0.07,0,0.11-0.04,0.11-0.11
		c-0.04-0.71-0.07-1.22-0.11-1.54c-0.09-0.66-0.36-1.19-0.8-1.61c-0.44-0.42-1-0.62-1.68-0.62
		C198.23,107.48,197.68,107.68,197.24,108.09z"/>
	<path class="st0" d="M4.17,143.47c-0.86-0.45-1.53-1.09-2-1.92c-0.47-0.83-0.71-1.78-0.71-2.86v-8.17c0-1.65,0.52-2.97,1.56-3.95
		c1.04-0.99,2.41-1.48,4.11-1.48s3.07,0.49,4.1,1.46c1.03,0.98,1.54,2.27,1.54,3.89v0.21c0,0.09-0.03,0.16-0.08,0.21
		c-0.05,0.05-0.12,0.08-0.19,0.08l-2.02,0.11c-0.18,0-0.27-0.09-0.27-0.27v-0.4c0-0.92-0.28-1.67-0.85-2.24
		c-0.57-0.57-1.31-0.85-2.24-0.85s-1.67,0.28-2.25,0.85c-0.58,0.57-0.87,1.31-0.87,2.24v8.47c0,0.92,0.29,1.67,0.87,2.24
		c0.58,0.57,1.33,0.85,2.25,0.85s1.67-0.28,2.24-0.85c0.57-0.57,0.85-1.31,0.85-2.24v-0.37c0-0.18,0.09-0.27,0.27-0.27l2.02,0.11
		c0.18,0,0.27,0.09,0.27,0.27v0.19c0,1.07-0.24,2.01-0.71,2.82c-0.47,0.82-1.13,1.45-1.98,1.89c-0.85,0.44-1.84,0.67-2.96,0.67
		S5.03,143.92,4.17,143.47z"/>
	<path class="st0" d="M17.09,143.07c-0.89-0.72-1.42-1.7-1.6-2.94c-0.14-0.89-0.21-1.88-0.21-2.98c0-1.12,0.07-2.1,0.21-2.96
		c0.18-1.22,0.71-2.2,1.6-2.93c0.89-0.73,2.02-1.09,3.41-1.09c1.37,0,2.49,0.36,3.38,1.09c0.89,0.73,1.42,1.69,1.6,2.9
		c0.14,0.76,0.21,1.76,0.21,2.98s-0.07,2.22-0.21,2.98c-0.18,1.24-0.71,2.22-1.58,2.94c-0.88,0.72-2.01,1.08-3.39,1.08
		S17.98,143.78,17.09,143.07z M22.16,141.32c0.45-0.41,0.73-0.95,0.84-1.62c0.09-0.8,0.13-1.65,0.13-2.56
		c0-0.92-0.04-1.77-0.13-2.53c-0.11-0.67-0.39-1.22-0.84-1.62c-0.45-0.41-1.02-0.61-1.69-0.61c-0.66,0-1.21,0.2-1.66,0.61
		s-0.73,0.95-0.84,1.62c-0.07,0.62-0.11,1.46-0.11,2.53c0,1.08,0.04,1.94,0.11,2.56c0.11,0.67,0.39,1.22,0.84,1.62
		c0.45,0.41,1.02,0.61,1.69,0.61C21.16,141.93,21.71,141.73,22.16,141.32z"/>
	<path class="st0" d="M37.39,131.39c0.72,0.8,1.08,1.9,1.08,3.3v8.97c0,0.18-0.09,0.27-0.27,0.27h-2.02c-0.18,0-0.27-0.09-0.27-0.27
		v-8.6c0-0.82-0.21-1.46-0.63-1.94s-0.98-0.72-1.69-0.72c-0.73,0-1.31,0.24-1.74,0.73c-0.44,0.49-0.65,1.14-0.65,1.96v8.57
		c0,0.18-0.09,0.27-0.27,0.27h-2.02c-0.18,0-0.27-0.09-0.27-0.27v-13.02c0-0.18,0.09-0.27,0.27-0.27h2.02
		c0.18,0,0.27,0.09,0.27,0.27v0.83c0,0.05,0.01,0.08,0.04,0.09c0.03,0.01,0.06-0.01,0.09-0.07c0.69-0.87,1.7-1.3,3.03-1.3
		C35.66,130.19,36.67,130.59,37.39,131.39z"/>
	<path class="st0" d="M47.33,132.35h-2.37c-0.07,0-0.11,0.04-0.11,0.11v7.29c0,0.73,0.15,1.24,0.44,1.53
		c0.29,0.29,0.75,0.44,1.37,0.44h0.51c0.18,0,0.27,0.09,0.27,0.27v1.68c0,0.18-0.09,0.27-0.27,0.27l-1.04,0.03
		c-1.24,0-2.18-0.23-2.81-0.71c-0.63-0.47-0.95-1.34-0.95-2.62v-8.17c0-0.07-0.04-0.11-0.11-0.11h-1.3c-0.18,0-0.27-0.09-0.27-0.27
		v-1.44c0-0.18,0.09-0.27,0.27-0.27h1.3c0.07,0,0.11-0.04,0.11-0.11v-3.06c0-0.18,0.09-0.27,0.27-0.27h1.94
		c0.18,0,0.27,0.09,0.27,0.27v3.06c0,0.07,0.04,0.11,0.11,0.11h2.37c0.18,0,0.27,0.09,0.27,0.27v1.44
		C47.6,132.26,47.51,132.35,47.33,132.35z"/>
	<path class="st0" d="M57.16,130.57c0.12,0.05,0.17,0.16,0.13,0.32l-0.4,2.02c-0.02,0.18-0.12,0.23-0.32,0.16
		c-0.27-0.09-0.56-0.13-0.88-0.13c-0.23,0-0.4,0.01-0.51,0.03c-0.69,0.05-1.27,0.37-1.73,0.95c-0.46,0.58-0.69,1.26-0.69,2.06v7.69
		c0,0.18-0.09,0.27-0.27,0.27h-2.02c-0.18,0-0.27-0.09-0.27-0.27v-13.02c0-0.18,0.09-0.27,0.27-0.27h2.02
		c0.18,0,0.27,0.09,0.27,0.27v1.7c0,0.05,0.01,0.08,0.04,0.09c0.03,0.01,0.05,0,0.07-0.04c0.64-1.44,1.61-2.16,2.93-2.16
		C56.33,130.25,56.78,130.35,57.16,130.57z"/>
	<path class="st0" d="M60.56,143.07c-0.89-0.72-1.42-1.7-1.6-2.94c-0.14-0.89-0.21-1.88-0.21-2.98c0-1.12,0.07-2.1,0.21-2.96
		c0.18-1.22,0.71-2.2,1.6-2.93c0.89-0.73,2.02-1.09,3.41-1.09c1.37,0,2.49,0.36,3.38,1.09c0.89,0.73,1.42,1.69,1.6,2.9
		c0.14,0.76,0.21,1.76,0.21,2.98s-0.07,2.22-0.21,2.98c-0.18,1.24-0.71,2.22-1.58,2.94c-0.88,0.72-2.01,1.08-3.39,1.08
		S61.45,143.78,60.56,143.07z M65.64,141.32c0.45-0.41,0.73-0.95,0.84-1.62c0.09-0.8,0.13-1.65,0.13-2.56
		c0-0.92-0.04-1.77-0.13-2.53c-0.11-0.67-0.39-1.22-0.84-1.62c-0.45-0.41-1.02-0.61-1.69-0.61c-0.66,0-1.21,0.2-1.66,0.61
		s-0.73,0.95-0.84,1.62c-0.07,0.62-0.11,1.46-0.11,2.53c0,1.08,0.04,1.94,0.11,2.56c0.11,0.67,0.39,1.22,0.84,1.62
		c0.45,0.41,1.02,0.61,1.69,0.61C64.63,141.93,65.18,141.73,65.64,141.32z"/>
	<path class="st0" d="M72.07,143.66v-18.1c0-0.18,0.09-0.27,0.27-0.27h2.02c0.18,0,0.27,0.09,0.27,0.27v18.1
		c0,0.18-0.09,0.27-0.27,0.27h-2.02C72.15,143.93,72.07,143.84,72.07,143.66z"/>
	<path class="st0" d="M84.25,141.5c0.42-0.29,0.73-0.7,0.94-1.21c0.05-0.16,0.16-0.22,0.32-0.19l1.81,0.4
		c0.18,0.05,0.24,0.16,0.19,0.32c-0.34,1.05-0.92,1.86-1.76,2.45c-0.83,0.59-1.85,0.88-3.06,0.88c-1.38,0-2.5-0.35-3.35-1.04
		s-1.39-1.64-1.62-2.85c-0.09-0.5-0.15-1.03-0.17-1.58c-0.03-0.56-0.04-1.3-0.04-2.22c0-0.91,0.04-1.62,0.13-2.16
		c0.16-1.24,0.68-2.24,1.57-2.99c0.89-0.75,2.01-1.13,3.35-1.13c1.47,0,2.66,0.42,3.57,1.25c0.91,0.83,1.41,1.93,1.52,3.3
		c0.05,0.6,0.08,1.71,0.08,3.33c0,0.18-0.09,0.27-0.27,0.27h-7.29c-0.07,0-0.11,0.04-0.11,0.11c0,0.5,0.03,0.93,0.08,1.3
		c0.09,0.66,0.36,1.19,0.83,1.6c0.46,0.41,1.05,0.61,1.76,0.61C83.32,141.93,83.83,141.79,84.25,141.5z M80.92,132.99
		c-0.44,0.41-0.7,0.94-0.79,1.6c-0.05,0.48-0.08,1-0.08,1.57c0,0.07,0.04,0.11,0.11,0.11h4.9c0.07,0,0.11-0.04,0.11-0.11
		c-0.04-0.71-0.07-1.22-0.11-1.54c-0.09-0.66-0.35-1.19-0.8-1.61c-0.44-0.42-1-0.62-1.68-0.62
		C81.91,132.38,81.35,132.58,80.92,132.99z"/>
	<path class="st0" d="M103.37,125.3h2.02c0.18,0,0.27,0.09,0.27,0.27v18.1c0,0.18-0.09,0.27-0.27,0.27h-2.02
		c-0.18,0-0.27-0.09-0.27-0.27v-0.9c0-0.04-0.02-0.06-0.05-0.08c-0.04-0.02-0.06-0.01-0.08,0.03c-0.64,0.96-1.64,1.44-3.01,1.44
		c-1.1,0-1.99-0.32-2.66-0.96c-0.67-0.64-1.17-1.62-1.49-2.96c-0.21-0.92-0.32-1.93-0.32-3.04c0-1.14,0.09-2.15,0.27-3.04
		c0.53-2.66,1.98-3.99,4.34-3.99c0.69,0,1.27,0.12,1.73,0.35c0.46,0.23,0.84,0.58,1.14,1.04c0.04,0.04,0.07,0.05,0.09,0.05
		c0.03,0,0.04-0.03,0.04-0.08v-5.96C103.11,125.38,103.2,125.3,103.37,125.3z M103.08,137.14c0-1.33-0.12-2.34-0.37-3.03
		c-0.16-0.57-0.4-1-0.73-1.29c-0.33-0.29-0.76-0.44-1.29-0.44c-1.05,0-1.77,0.56-2.18,1.68c-0.28,0.8-0.43,1.83-0.43,3.09
		c0,1.28,0.12,2.26,0.35,2.96c0.37,1.22,1.12,1.84,2.24,1.84c1.03,0,1.72-0.59,2.08-1.78C102.96,139.44,103.08,138.44,103.08,137.14
		z"/>
	<path class="st0" d="M117.14,131.41c0.89,0.83,1.33,1.9,1.33,3.23v9.02c0,0.18-0.09,0.27-0.27,0.27h-2.02
		c-0.18,0-0.27-0.09-0.27-0.27v-0.77c0-0.04-0.01-0.06-0.04-0.07c-0.03-0.01-0.06,0-0.09,0.04c-0.8,0.85-1.91,1.28-3.33,1.28
		c-1.15,0-2.14-0.31-2.96-0.95c-0.82-0.63-1.22-1.65-1.22-3.05c0-1.46,0.47-2.56,1.42-3.31c0.95-0.75,2.24-1.13,3.87-1.13h2.24
		c0.07,0,0.11-0.04,0.11-0.11v-0.75c0-0.76-0.2-1.37-0.6-1.81c-0.4-0.44-0.97-0.67-1.72-0.67c-0.59,0-1.07,0.15-1.45,0.44
		c-0.38,0.29-0.62,0.69-0.71,1.19c-0.02,0.16-0.12,0.24-0.29,0.24l-2.18-0.13c-0.07,0-0.13-0.02-0.19-0.07
		c-0.05-0.04-0.07-0.1-0.05-0.17c0.11-1.1,0.61-1.99,1.5-2.67c0.9-0.68,2.02-1.03,3.37-1.03
		C115.07,130.17,116.25,130.58,117.14,131.41z M115.05,141.3c0.58-0.44,0.87-1.04,0.87-1.78v-1.7c0-0.07-0.04-0.11-0.11-0.11h-2.05
		c-0.87,0-1.57,0.2-2.09,0.59s-0.79,0.96-0.79,1.7c0,0.66,0.2,1.15,0.59,1.48c0.39,0.33,0.91,0.49,1.54,0.49
		C113.79,141.96,114.47,141.74,115.05,141.3z"/>
	<path class="st0" d="M129.37,143.47c-0.86-0.47-1.53-1.13-2.01-1.98c-0.48-0.85-0.72-1.84-0.72-2.96v-7.83
		c0-1.1,0.24-2.08,0.72-2.93c0.48-0.85,1.15-1.51,2.01-1.98c0.86-0.47,1.86-0.71,3-0.71c1.13,0,2.14,0.24,3.01,0.71
		c0.87,0.47,1.54,1.13,2.02,1.98c0.48,0.85,0.72,1.83,0.72,2.93v7.83c0,1.12-0.24,2.1-0.72,2.96s-1.15,1.51-2.02,1.98
		c-0.87,0.47-1.87,0.71-3.01,0.71C131.23,144.17,130.23,143.93,129.37,143.47z M134.68,141.03c0.59-0.6,0.88-1.4,0.88-2.4v-7.99
		c0-0.99-0.29-1.8-0.88-2.42c-0.59-0.62-1.36-0.93-2.32-0.93c-0.94,0-1.7,0.31-2.29,0.93c-0.59,0.62-0.88,1.43-0.88,2.42v7.99
		c0,0.98,0.29,1.77,0.88,2.38s1.35,0.92,2.29,0.92C133.32,141.93,134.09,141.63,134.68,141.03z"/>
	<path class="st0" d="M151.4,137.2c0,1.1-0.11,2.11-0.32,3.04c-0.3,1.33-0.79,2.32-1.46,2.96c-0.67,0.64-1.57,0.96-2.69,0.96
		c-1.35,0-2.34-0.47-2.98-1.41c-0.02-0.04-0.04-0.04-0.08-0.03c-0.04,0.02-0.05,0.04-0.05,0.08v0.88c0,0.18-0.09,0.27-0.27,0.27
		h-2.02c-0.18,0-0.27-0.09-0.27-0.27v-18.1c0-0.18,0.09-0.27,0.27-0.27h2.02c0.18,0,0.27,0.09,0.27,0.27v5.94
		c0,0.05,0.01,0.08,0.04,0.08s0.06-0.02,0.09-0.05c0.58-0.91,1.54-1.36,2.88-1.36c2.34,0,3.78,1.33,4.31,3.99
		C151.31,135.05,151.4,136.06,151.4,137.2z M148.82,137.14c0-1.31-0.13-2.34-0.4-3.09c-0.43-1.12-1.15-1.68-2.18-1.68
		c-0.53,0-0.96,0.15-1.29,0.44c-0.33,0.29-0.58,0.72-0.76,1.29c-0.23,0.71-0.35,1.72-0.35,3.03c0,1.28,0.11,2.28,0.32,3.01
		c0.37,1.19,1.07,1.78,2.1,1.78c1.12,0,1.86-0.61,2.24-1.84C148.71,139.39,148.82,138.4,148.82,137.14z"/>
	<path class="st0" d="M160.7,141.5c0.42-0.29,0.73-0.7,0.95-1.21c0.05-0.16,0.16-0.22,0.32-0.19l1.81,0.4
		c0.18,0.05,0.24,0.16,0.19,0.32c-0.34,1.05-0.92,1.86-1.76,2.45c-0.83,0.59-1.85,0.88-3.06,0.88c-1.38,0-2.5-0.35-3.35-1.04
		s-1.39-1.64-1.62-2.85c-0.09-0.5-0.15-1.03-0.17-1.58c-0.03-0.56-0.04-1.3-0.04-2.22c0-0.91,0.04-1.62,0.13-2.16
		c0.16-1.24,0.68-2.24,1.57-2.99c0.89-0.75,2-1.13,3.35-1.13c1.47,0,2.66,0.42,3.57,1.25c0.91,0.83,1.41,1.93,1.52,3.3
		c0.05,0.6,0.08,1.71,0.08,3.33c0,0.18-0.09,0.27-0.27,0.27h-7.29c-0.07,0-0.11,0.04-0.11,0.11c0,0.5,0.03,0.93,0.08,1.3
		c0.09,0.66,0.36,1.19,0.83,1.6c0.46,0.41,1.05,0.61,1.76,0.61C159.78,141.93,160.29,141.79,160.7,141.5z M157.38,132.99
		c-0.43,0.41-0.7,0.94-0.79,1.6c-0.05,0.48-0.08,1-0.08,1.57c0,0.07,0.04,0.11,0.11,0.11h4.9c0.07,0,0.11-0.04,0.11-0.11
		c-0.04-0.71-0.07-1.22-0.11-1.54c-0.09-0.66-0.36-1.19-0.8-1.61c-0.44-0.42-1-0.62-1.68-0.62
		C158.36,132.38,157.81,132.58,157.38,132.99z"/>
	<path class="st0" d="M167.65,143.08c-0.88-0.67-1.32-1.54-1.32-2.61v-0.27c0-0.18,0.09-0.27,0.27-0.27h1.89
		c0.18,0,0.27,0.09,0.27,0.27v0.16c0,0.48,0.23,0.9,0.69,1.25c0.46,0.36,1.03,0.53,1.7,0.53s1.22-0.17,1.64-0.51
		s0.62-0.75,0.62-1.25c0-0.39-0.12-0.71-0.36-0.96c-0.24-0.25-0.53-0.45-0.88-0.6c-0.35-0.15-0.86-0.34-1.53-0.57
		c-0.83-0.27-1.54-0.54-2.12-0.84c-0.58-0.29-1.07-0.71-1.48-1.25c-0.41-0.54-0.61-1.23-0.61-2.06c0-1.19,0.42-2.13,1.26-2.82
		s1.97-1.04,3.37-1.04c1.42,0,2.56,0.36,3.42,1.06c0.86,0.71,1.29,1.64,1.29,2.8v0.05c0,0.18-0.09,0.27-0.27,0.27h-1.86
		c-0.18,0-0.27-0.09-0.27-0.27v-0.11c0-0.51-0.21-0.94-0.64-1.28s-0.99-0.51-1.68-0.51c-0.66,0-1.18,0.16-1.58,0.48
		s-0.6,0.73-0.6,1.22c0,0.37,0.12,0.68,0.35,0.92c0.23,0.24,0.52,0.44,0.87,0.6c0.35,0.16,0.86,0.36,1.53,0.59
		c0.89,0.3,1.62,0.59,2.2,0.88c0.58,0.28,1.08,0.69,1.5,1.22c0.43,0.53,0.64,1.22,0.64,2.05c0,1.19-0.44,2.13-1.3,2.82
		c-0.87,0.69-2.04,1.04-3.51,1.04C169.7,144.09,168.53,143.75,167.65,143.08z"/>
	<path class="st0" d="M178.74,127.77c-0.32-0.32-0.48-0.73-0.48-1.22c0-0.51,0.16-0.93,0.48-1.24c0.32-0.31,0.73-0.47,1.22-0.47
		c0.5,0,0.9,0.16,1.22,0.48c0.32,0.32,0.48,0.73,0.48,1.22c0,0.5-0.16,0.91-0.49,1.22c-0.33,0.32-0.73,0.48-1.21,0.48
		C179.47,128.25,179.06,128.09,178.74,127.77z M178.66,143.66v-13.02c0-0.18,0.09-0.27,0.27-0.27h2.02c0.18,0,0.27,0.09,0.27,0.27
		v13.02c0,0.18-0.09,0.27-0.27,0.27h-2.02C178.75,143.93,178.66,143.84,178.66,143.66z"/>
	<path class="st0" d="M192.21,125.3h2.02c0.18,0,0.27,0.09,0.27,0.27v18.1c0,0.18-0.09,0.27-0.27,0.27h-2.02
		c-0.18,0-0.27-0.09-0.27-0.27v-0.9c0-0.04-0.02-0.06-0.05-0.08c-0.04-0.02-0.06-0.01-0.08,0.03c-0.64,0.96-1.64,1.44-3.01,1.44
		c-1.1,0-1.99-0.32-2.66-0.96c-0.67-0.64-1.17-1.62-1.49-2.96c-0.21-0.92-0.32-1.93-0.32-3.04c0-1.14,0.09-2.15,0.27-3.04
		c0.53-2.66,1.98-3.99,4.34-3.99c0.69,0,1.27,0.12,1.73,0.35c0.46,0.23,0.84,0.58,1.14,1.04c0.04,0.04,0.07,0.05,0.09,0.05
		c0.03,0,0.04-0.03,0.04-0.08v-5.96C191.94,125.38,192.03,125.3,192.21,125.3z M191.92,137.14c0-1.33-0.12-2.34-0.37-3.03
		c-0.16-0.57-0.4-1-0.73-1.29c-0.33-0.29-0.76-0.44-1.29-0.44c-1.05,0-1.77,0.56-2.18,1.68c-0.28,0.8-0.43,1.83-0.43,3.09
		c0,1.28,0.12,2.26,0.35,2.96c0.37,1.22,1.12,1.84,2.24,1.84c1.03,0,1.72-0.59,2.08-1.78C191.8,139.44,191.92,138.44,191.92,137.14z
		"/>
	<path class="st0" d="M205.97,131.41c0.89,0.83,1.33,1.9,1.33,3.23v9.02c0,0.18-0.09,0.27-0.27,0.27h-2.02
		c-0.18,0-0.27-0.09-0.27-0.27v-0.77c0-0.04-0.01-0.06-0.04-0.07c-0.03-0.01-0.06,0-0.09,0.04c-0.8,0.85-1.91,1.28-3.33,1.28
		c-1.15,0-2.14-0.31-2.96-0.95c-0.82-0.63-1.22-1.65-1.22-3.05c0-1.46,0.47-2.56,1.42-3.31c0.95-0.75,2.24-1.13,3.87-1.13h2.24
		c0.07,0,0.11-0.04,0.11-0.11v-0.75c0-0.76-0.2-1.37-0.6-1.81c-0.4-0.44-0.97-0.67-1.72-0.67c-0.59,0-1.07,0.15-1.45,0.44
		c-0.38,0.29-0.62,0.69-0.71,1.19c-0.02,0.16-0.12,0.24-0.29,0.24l-2.18-0.13c-0.07,0-0.13-0.02-0.19-0.07
		c-0.05-0.04-0.07-0.1-0.05-0.17c0.11-1.1,0.61-1.99,1.5-2.67c0.9-0.68,2.02-1.03,3.37-1.03
		C203.91,130.17,205.09,130.58,205.97,131.41z M203.88,141.3c0.58-0.44,0.87-1.04,0.87-1.78v-1.7c0-0.07-0.04-0.11-0.11-0.11h-2.05
		c-0.87,0-1.57,0.2-2.09,0.59s-0.79,0.96-0.79,1.7c0,0.66,0.2,1.15,0.59,1.48c0.39,0.33,0.91,0.49,1.54,0.49
		C202.63,141.96,203.31,141.74,203.88,141.3z"/>
	<path class="st0" d="M217.85,125.3h2.02c0.18,0,0.27,0.09,0.27,0.27v18.1c0,0.18-0.09,0.27-0.27,0.27h-2.02
		c-0.18,0-0.27-0.09-0.27-0.27v-0.9c0-0.04-0.02-0.06-0.05-0.08c-0.04-0.02-0.06-0.01-0.08,0.03c-0.64,0.96-1.64,1.44-3.01,1.44
		c-1.1,0-1.99-0.32-2.66-0.96c-0.67-0.64-1.17-1.62-1.49-2.96c-0.21-0.92-0.32-1.93-0.32-3.04c0-1.14,0.09-2.15,0.27-3.04
		c0.53-2.66,1.98-3.99,4.34-3.99c0.69,0,1.27,0.12,1.73,0.35c0.46,0.23,0.84,0.58,1.14,1.04c0.04,0.04,0.07,0.05,0.09,0.05
		c0.03,0,0.04-0.03,0.04-0.08v-5.96C217.58,125.38,217.67,125.3,217.85,125.3z M217.56,137.14c0-1.33-0.12-2.34-0.37-3.03
		c-0.16-0.57-0.4-1-0.73-1.29c-0.33-0.29-0.76-0.44-1.29-0.44c-1.05,0-1.77,0.56-2.18,1.68c-0.28,0.8-0.43,1.83-0.43,3.09
		c0,1.28,0.12,2.26,0.35,2.96c0.37,1.22,1.12,1.84,2.24,1.84c1.03,0,1.72-0.59,2.08-1.78C217.44,139.44,217.56,138.44,217.56,137.14
		z"/>
	<path class="st0" d="M229.87,141.5c0.42-0.29,0.73-0.7,0.95-1.21c0.05-0.16,0.16-0.22,0.32-0.19l1.81,0.4
		c0.18,0.05,0.24,0.16,0.19,0.32c-0.34,1.05-0.92,1.86-1.76,2.45c-0.83,0.59-1.85,0.88-3.06,0.88c-1.38,0-2.5-0.35-3.35-1.04
		s-1.39-1.64-1.62-2.85c-0.09-0.5-0.15-1.03-0.17-1.58c-0.03-0.56-0.04-1.3-0.04-2.22c0-0.91,0.04-1.62,0.13-2.16
		c0.16-1.24,0.68-2.24,1.57-2.99c0.89-0.75,2-1.13,3.35-1.13c1.47,0,2.66,0.42,3.57,1.25c0.91,0.83,1.41,1.93,1.52,3.3
		c0.05,0.6,0.08,1.71,0.08,3.33c0,0.18-0.09,0.27-0.27,0.27h-7.29c-0.07,0-0.11,0.04-0.11,0.11c0,0.5,0.03,0.93,0.08,1.3
		c0.09,0.66,0.36,1.19,0.83,1.6c0.46,0.41,1.05,0.61,1.76,0.61C228.94,141.93,229.45,141.79,229.87,141.5z M226.54,132.99
		c-0.43,0.41-0.7,0.94-0.79,1.6c-0.05,0.48-0.08,1-0.08,1.57c0,0.07,0.04,0.11,0.11,0.11h4.9c0.07,0,0.11-0.04,0.11-0.11
		c-0.04-0.71-0.07-1.22-0.11-1.54c-0.09-0.66-0.36-1.19-0.8-1.61c-0.44-0.42-1-0.62-1.68-0.62
		C227.53,132.38,226.97,132.58,226.54,132.99z"/>
</g>
<g>
	<g>
		<path class="st0" d="M7.13,161.48c0.43,0.48,0.65,1.15,0.65,1.99v5.41c0,0.11-0.05,0.16-0.16,0.16H6.39
			c-0.11,0-0.16-0.05-0.16-0.16v-5.19c0-0.49-0.13-0.88-0.38-1.17c-0.25-0.29-0.59-0.43-1.02-0.43c-0.44,0-0.79,0.15-1.05,0.44
			c-0.26,0.29-0.39,0.69-0.39,1.18v5.17c0,0.11-0.05,0.16-0.16,0.16H2.01c-0.11,0-0.16-0.05-0.16-0.16v-7.86
			c0-0.11,0.05-0.16,0.16-0.16h1.22c0.11,0,0.16,0.05,0.16,0.16v0.5c0,0.03,0.01,0.05,0.02,0.06c0.02,0.01,0.03-0.01,0.06-0.04
			c0.42-0.52,1.03-0.79,1.83-0.79C6.08,160.75,6.69,160.99,7.13,161.48z"/>
		<path class="st0" d="M10.52,168.52c-0.54-0.43-0.86-1.03-0.96-1.78c-0.09-0.54-0.13-1.13-0.13-1.8c0-0.67,0.04-1.27,0.13-1.78
			c0.11-0.74,0.43-1.33,0.96-1.77c0.54-0.44,1.22-0.66,2.06-0.66c0.82,0,1.5,0.22,2.04,0.66s0.86,1.02,0.96,1.75
			c0.09,0.46,0.13,1.06,0.13,1.8c0,0.74-0.04,1.34-0.13,1.8c-0.11,0.75-0.43,1.34-0.96,1.78c-0.53,0.43-1.21,0.65-2.05,0.65
			S11.06,168.96,10.52,168.52z M13.58,167.47c0.27-0.25,0.44-0.57,0.51-0.98c0.05-0.48,0.08-1,0.08-1.54c0-0.56-0.03-1.07-0.08-1.53
			c-0.06-0.41-0.23-0.73-0.51-0.98c-0.27-0.25-0.61-0.37-1.02-0.37c-0.4,0-0.73,0.12-1,0.37c-0.27,0.25-0.44,0.57-0.51,0.98
			c-0.04,0.38-0.06,0.88-0.06,1.53c0,0.65,0.02,1.17,0.06,1.54c0.06,0.41,0.23,0.73,0.51,0.98c0.27,0.25,0.61,0.37,1.02,0.37
			C12.98,167.84,13.31,167.72,13.58,167.47z"/>
		<path class="st0" d="M25.66,161.48c0.54,0.5,0.8,1.15,0.8,1.95v5.45c0,0.11-0.05,0.16-0.16,0.16h-1.22
			c-0.11,0-0.16-0.05-0.16-0.16v-0.47c0-0.02-0.01-0.03-0.02-0.04c-0.02,0-0.04,0-0.06,0.02c-0.48,0.51-1.15,0.77-2.01,0.77
			c-0.7,0-1.29-0.19-1.78-0.57c-0.49-0.38-0.74-0.99-0.74-1.84c0-0.88,0.29-1.54,0.86-2c0.57-0.46,1.35-0.68,2.34-0.68h1.35
			c0.04,0,0.06-0.02,0.06-0.06v-0.45c0-0.46-0.12-0.83-0.36-1.09c-0.24-0.27-0.59-0.4-1.04-0.4c-0.35,0-0.65,0.09-0.88,0.26
			s-0.37,0.42-0.43,0.71c-0.01,0.1-0.07,0.14-0.18,0.14l-1.32-0.08c-0.04,0-0.08-0.01-0.11-0.04c-0.03-0.03-0.04-0.06-0.03-0.1
			c0.06-0.66,0.37-1.2,0.91-1.61c0.54-0.41,1.22-0.62,2.03-0.62C24.41,160.74,25.12,160.99,25.66,161.48z M21.42,159.75
			c-0.02-0.04-0.02-0.08,0.02-0.14l1.17-1.72c0.04-0.06,0.11-0.1,0.19-0.1h1.37c0.09,0,0.15,0.03,0.19,0.1l1.21,1.72
			c0.02,0.02,0.03,0.05,0.03,0.08c0,0.08-0.05,0.11-0.14,0.11h-0.96c-0.08,0-0.14-0.04-0.19-0.11l-0.74-1.16
			c-0.01-0.02-0.03-0.03-0.05-0.03c-0.02,0-0.04,0.01-0.05,0.03l-0.76,1.16c-0.05,0.08-0.12,0.11-0.19,0.11h-0.96
			C21.48,159.81,21.44,159.79,21.42,159.75z M24.4,167.45c0.35-0.27,0.52-0.63,0.52-1.08v-1.03c0-0.04-0.02-0.06-0.06-0.06h-1.24
			c-0.52,0-0.95,0.12-1.26,0.35c-0.32,0.24-0.47,0.58-0.47,1.03c0,0.4,0.12,0.69,0.35,0.89c0.24,0.2,0.55,0.3,0.93,0.3
			C23.64,167.86,24.05,167.72,24.4,167.45z"/>
		<path class="st0" d="M37.68,161.48c0.41,0.48,0.62,1.15,0.62,2.01v5.4c0,0.11-0.05,0.16-0.16,0.16h-1.2
			c-0.11,0-0.16-0.05-0.16-0.16v-5.17c0-0.5-0.12-0.9-0.36-1.19c-0.24-0.29-0.57-0.43-0.99-0.43c-0.42,0-0.75,0.14-1,0.43
			c-0.25,0.28-0.38,0.67-0.38,1.17v5.21c0,0.11-0.05,0.16-0.16,0.16h-1.21c-0.11,0-0.16-0.05-0.16-0.16v-5.17
			c0-0.5-0.12-0.9-0.37-1.19c-0.25-0.29-0.57-0.43-0.98-0.43c-0.42,0-0.75,0.14-1,0.43c-0.25,0.28-0.38,0.67-0.38,1.17v5.21
			c0,0.11-0.05,0.16-0.16,0.16h-1.21c-0.11,0-0.16-0.05-0.16-0.16v-7.86c0-0.11,0.05-0.16,0.16-0.16h1.21
			c0.11,0,0.16,0.05,0.16,0.16v0.48c0,0.02,0.01,0.04,0.02,0.05c0.02,0.01,0.03,0.01,0.06-0.02c0.44-0.52,1.05-0.79,1.83-0.79
			c0.47,0,0.88,0.1,1.22,0.29c0.34,0.19,0.61,0.48,0.79,0.85c0.03,0.04,0.06,0.04,0.1-0.02c0.24-0.39,0.54-0.67,0.92-0.85
			c0.38-0.18,0.78-0.27,1.21-0.27C36.69,160.75,37.27,160.99,37.68,161.48z"/>
		<path class="st0" d="M46.3,164.98c0,0.66-0.06,1.27-0.19,1.83c-0.18,0.8-0.48,1.4-0.88,1.78c-0.41,0.39-0.95,0.58-1.62,0.58
			c-0.81,0-1.41-0.28-1.8-0.85c-0.01-0.02-0.03-0.03-0.05-0.02c-0.02,0.01-0.03,0.03-0.03,0.05v0.53c0,0.11-0.05,0.16-0.16,0.16
			h-1.22c-0.11,0-0.16-0.05-0.16-0.16v-10.92c0-0.11,0.05-0.16,0.16-0.16h1.22c0.11,0,0.16,0.05,0.16,0.16v3.58
			c0,0.03,0.01,0.05,0.02,0.05s0.03-0.01,0.06-0.03c0.35-0.55,0.93-0.82,1.74-0.82c1.41,0,2.28,0.8,2.6,2.41
			C46.25,163.68,46.3,164.29,46.3,164.98z M44.75,164.95c0-0.79-0.08-1.41-0.24-1.86c-0.26-0.67-0.7-1.01-1.32-1.01
			c-0.32,0-0.58,0.09-0.78,0.26s-0.35,0.44-0.46,0.78c-0.14,0.43-0.21,1.04-0.21,1.83c0,0.77,0.06,1.38,0.19,1.82
			c0.22,0.72,0.65,1.08,1.27,1.08c0.67,0,1.12-0.37,1.35-1.11C44.68,166.3,44.75,165.71,44.75,164.95z"/>
		<path class="st0" d="M48.23,159.29c-0.19-0.19-0.29-0.44-0.29-0.74c0-0.31,0.1-0.56,0.29-0.75s0.44-0.28,0.74-0.28
			c0.3,0,0.55,0.1,0.74,0.29c0.19,0.19,0.29,0.44,0.29,0.74s-0.1,0.55-0.3,0.74c-0.2,0.19-0.44,0.29-0.73,0.29
			C48.67,159.58,48.42,159.48,48.23,159.29z M48.18,168.88v-7.86c0-0.11,0.05-0.16,0.16-0.16h1.22c0.11,0,0.16,0.05,0.16,0.16v7.86
			c0,0.11-0.05,0.16-0.16,0.16h-1.22C48.24,169.04,48.18,168.99,48.18,168.88z"/>
		<path class="st0" d="M55.27,162.06h-1.43c-0.04,0-0.06,0.02-0.06,0.06v4.4c0,0.44,0.09,0.75,0.26,0.92s0.45,0.26,0.83,0.26h0.31
			c0.11,0,0.16,0.05,0.16,0.16v1.01c0,0.11-0.05,0.16-0.16,0.16l-0.63,0.02c-0.75,0-1.31-0.14-1.69-0.43
			c-0.38-0.28-0.57-0.81-0.57-1.58v-4.93c0-0.04-0.02-0.06-0.06-0.06h-0.79c-0.11,0-0.16-0.05-0.16-0.16v-0.87
			c0-0.11,0.05-0.16,0.16-0.16h0.79c0.04,0,0.06-0.02,0.06-0.06v-1.85c0-0.11,0.05-0.16,0.16-0.16h1.17c0.11,0,0.16,0.05,0.16,0.16
			v1.85c0,0.04,0.02,0.06,0.06,0.06h1.43c0.11,0,0.16,0.05,0.16,0.16v0.87C55.43,162,55.38,162.06,55.27,162.06z"/>
		<path class="st0" d="M57.79,168.52c-0.54-0.43-0.86-1.03-0.96-1.78c-0.09-0.54-0.13-1.13-0.13-1.8c0-0.67,0.04-1.27,0.13-1.78
			c0.11-0.74,0.43-1.33,0.96-1.77c0.54-0.44,1.22-0.66,2.06-0.66c0.82,0,1.5,0.22,2.04,0.66s0.86,1.02,0.96,1.75
			c0.09,0.46,0.13,1.06,0.13,1.8c0,0.74-0.04,1.34-0.13,1.8c-0.11,0.75-0.43,1.34-0.96,1.78c-0.53,0.43-1.21,0.65-2.05,0.65
			S58.33,168.96,57.79,168.52z M60.85,167.47c0.27-0.25,0.44-0.57,0.51-0.98c0.05-0.48,0.08-1,0.08-1.54c0-0.56-0.03-1.07-0.08-1.53
			c-0.06-0.41-0.23-0.73-0.51-0.98c-0.27-0.25-0.61-0.37-1.02-0.37c-0.4,0-0.73,0.12-1,0.37c-0.27,0.25-0.44,0.57-0.51,0.98
			c-0.04,0.38-0.06,0.88-0.06,1.53c0,0.65,0.02,1.17,0.06,1.54c0.06,0.41,0.23,0.73,0.51,0.98c0.27,0.25,0.61,0.37,1.02,0.37
			C60.24,167.84,60.58,167.72,60.85,167.47z"/>
		<path class="st0" d="M72.52,157.8h1.22c0.11,0,0.16,0.05,0.16,0.16v10.92c0,0.11-0.05,0.16-0.16,0.16h-1.22
			c-0.11,0-0.16-0.05-0.16-0.16v-0.55c0-0.02-0.01-0.04-0.03-0.05s-0.04-0.01-0.05,0.02c-0.39,0.58-0.99,0.87-1.82,0.87
			c-0.66,0-1.2-0.19-1.61-0.58c-0.41-0.39-0.71-0.98-0.9-1.78c-0.13-0.56-0.19-1.17-0.19-1.83c0-0.69,0.05-1.3,0.16-1.83
			c0.32-1.61,1.19-2.41,2.62-2.41c0.42,0,0.77,0.07,1.04,0.21c0.28,0.14,0.51,0.35,0.69,0.63c0.02,0.02,0.04,0.03,0.06,0.03
			s0.02-0.02,0.02-0.05v-3.6C72.36,157.85,72.42,157.8,72.52,157.8z M72.35,164.95c0-0.8-0.08-1.41-0.22-1.83
			c-0.1-0.34-0.24-0.6-0.44-0.78c-0.2-0.18-0.46-0.26-0.78-0.26c-0.63,0-1.07,0.34-1.32,1.01c-0.17,0.48-0.26,1.1-0.26,1.86
			c0,0.77,0.07,1.37,0.21,1.78c0.23,0.74,0.67,1.11,1.35,1.11c0.62,0,1.04-0.36,1.25-1.08C72.28,166.33,72.35,165.73,72.35,164.95z"
			/>
		<path class="st0" d="M76.78,168.52c-0.54-0.43-0.86-1.03-0.96-1.78c-0.09-0.54-0.13-1.13-0.13-1.8c0-0.67,0.04-1.27,0.13-1.78
			c0.11-0.74,0.43-1.33,0.96-1.77c0.54-0.44,1.22-0.66,2.06-0.66c0.82,0,1.5,0.22,2.04,0.66s0.86,1.02,0.96,1.75
			c0.09,0.46,0.13,1.06,0.13,1.8c0,0.74-0.04,1.34-0.13,1.8c-0.11,0.75-0.43,1.34-0.96,1.78c-0.53,0.43-1.21,0.65-2.05,0.65
			S77.32,168.96,76.78,168.52z M79.84,167.47c0.27-0.25,0.44-0.57,0.51-0.98c0.05-0.48,0.08-1,0.08-1.54c0-0.56-0.03-1.07-0.08-1.53
			c-0.06-0.41-0.23-0.73-0.51-0.98c-0.27-0.25-0.61-0.37-1.02-0.37c-0.4,0-0.73,0.12-1,0.37c-0.27,0.25-0.44,0.57-0.51,0.98
			c-0.04,0.38-0.06,0.88-0.06,1.53c0,0.65,0.02,1.17,0.06,1.54c0.06,0.41,0.23,0.73,0.51,0.98c0.27,0.25,0.61,0.37,1.02,0.37
			C79.23,167.84,79.57,167.72,79.84,167.47z"/>
		<path class="st0" d="M88.29,168.8c-0.52-0.25-0.92-0.6-1.21-1.05c-0.28-0.45-0.43-0.97-0.43-1.57v-0.43
			c0-0.11,0.05-0.16,0.16-0.16h1.19c0.11,0,0.16,0.05,0.16,0.16v0.35c0,0.52,0.18,0.95,0.54,1.27c0.36,0.32,0.84,0.48,1.45,0.48
			c0.55,0,0.98-0.15,1.29-0.44c0.32-0.29,0.47-0.68,0.47-1.17c0-0.32-0.08-0.6-0.24-0.84c-0.16-0.24-0.39-0.46-0.7-0.66
			s-0.75-0.46-1.33-0.77c-0.65-0.34-1.18-0.65-1.57-0.92c-0.39-0.27-0.71-0.6-0.97-1.01c-0.26-0.41-0.39-0.9-0.39-1.48
			c0-0.9,0.29-1.61,0.88-2.12c0.59-0.51,1.37-0.77,2.35-0.77c0.67,0,1.27,0.13,1.78,0.39c0.51,0.26,0.91,0.62,1.2,1.08
			s0.43,1,0.43,1.62v0.37c0,0.11-0.05,0.16-0.16,0.16h-1.21c-0.11,0-0.16-0.05-0.16-0.16v-0.34c0-0.53-0.17-0.95-0.51-1.29
			c-0.34-0.33-0.81-0.5-1.4-0.5c-0.52,0-0.93,0.13-1.23,0.4s-0.44,0.65-0.44,1.14c0,0.32,0.07,0.59,0.22,0.82
			c0.14,0.22,0.37,0.44,0.67,0.63s0.74,0.45,1.33,0.75c0.74,0.42,1.3,0.76,1.68,1.03c0.38,0.27,0.69,0.59,0.93,0.98
			c0.24,0.39,0.36,0.85,0.36,1.4c0,0.92-0.3,1.65-0.91,2.2c-0.6,0.55-1.42,0.82-2.45,0.82C89.41,169.17,88.81,169.05,88.29,168.8z"
			/>
		<path class="st0" d="M96.82,168.75c-0.52-0.28-0.92-0.69-1.2-1.21c-0.28-0.52-0.43-1.12-0.43-1.81v-7.78
			c0-0.11,0.05-0.16,0.16-0.16h1.22c0.11,0,0.16,0.05,0.16,0.16v7.87c0,0.6,0.17,1.08,0.52,1.45c0.35,0.37,0.8,0.55,1.36,0.55
			c0.57,0,1.03-0.18,1.37-0.55c0.35-0.37,0.52-0.85,0.52-1.45v-7.87c0-0.11,0.05-0.16,0.16-0.16h1.22c0.11,0,0.16,0.05,0.16,0.16
			v7.78c0,0.69-0.14,1.29-0.43,1.81c-0.28,0.52-0.69,0.92-1.21,1.21c-0.52,0.28-1.12,0.43-1.81,0.43
			C97.94,169.17,97.34,169.03,96.82,168.75z"/>
		<path class="st0" d="M105.42,168.8c-0.52-0.25-0.92-0.6-1.21-1.05c-0.28-0.45-0.43-0.97-0.43-1.57v-0.43
			c0-0.11,0.05-0.16,0.16-0.16h1.19c0.11,0,0.16,0.05,0.16,0.16v0.35c0,0.52,0.18,0.95,0.54,1.27c0.36,0.32,0.84,0.48,1.45,0.48
			c0.55,0,0.98-0.15,1.29-0.44c0.32-0.29,0.47-0.68,0.47-1.17c0-0.32-0.08-0.6-0.24-0.84c-0.16-0.24-0.39-0.46-0.7-0.66
			c-0.31-0.2-0.75-0.46-1.33-0.77c-0.65-0.34-1.18-0.65-1.57-0.92c-0.39-0.27-0.71-0.6-0.97-1.01s-0.39-0.9-0.39-1.48
			c0-0.9,0.29-1.61,0.88-2.12c0.59-0.51,1.37-0.77,2.35-0.77c0.67,0,1.27,0.13,1.78,0.39c0.51,0.26,0.91,0.62,1.2,1.08
			s0.43,1,0.43,1.62v0.37c0,0.11-0.05,0.16-0.16,0.16h-1.2c-0.11,0-0.16-0.05-0.16-0.16v-0.34c0-0.53-0.17-0.95-0.51-1.29
			c-0.34-0.33-0.81-0.5-1.4-0.5c-0.52,0-0.93,0.13-1.23,0.4c-0.29,0.27-0.44,0.65-0.44,1.14c0,0.32,0.07,0.59,0.22,0.82
			s0.37,0.44,0.67,0.63s0.74,0.45,1.33,0.75c0.74,0.42,1.3,0.76,1.68,1.03c0.38,0.27,0.69,0.59,0.93,0.98s0.36,0.85,0.36,1.4
			c0,0.92-0.3,1.65-0.91,2.2c-0.61,0.55-1.42,0.82-2.45,0.82C106.54,169.17,105.94,169.05,105.42,168.8z"/>
		<path class="st0" d="M120.73,161.48c0.43,0.48,0.65,1.15,0.65,1.99v5.41c0,0.11-0.05,0.16-0.16,0.16H120
			c-0.11,0-0.16-0.05-0.16-0.16v-5.19c0-0.49-0.13-0.88-0.38-1.17c-0.25-0.29-0.59-0.43-1.02-0.43c-0.44,0-0.79,0.15-1.05,0.44
			c-0.26,0.29-0.39,0.69-0.39,1.18v5.17c0,0.11-0.05,0.16-0.16,0.16h-1.22c-0.11,0-0.16-0.05-0.16-0.16v-7.86
			c0-0.11,0.05-0.16,0.16-0.16h1.22c0.11,0,0.16,0.05,0.16,0.16v0.5c0,0.03,0.01,0.05,0.02,0.06c0.02,0.01,0.03-0.01,0.06-0.04
			c0.42-0.52,1.03-0.79,1.83-0.79C119.69,160.75,120.3,160.99,120.73,161.48z"/>
		<path class="st0" d="M124.13,168.52c-0.54-0.43-0.86-1.03-0.96-1.78c-0.09-0.54-0.13-1.13-0.13-1.8c0-0.67,0.04-1.27,0.13-1.78
			c0.11-0.74,0.43-1.33,0.96-1.77c0.54-0.44,1.22-0.66,2.06-0.66c0.82,0,1.5,0.22,2.04,0.66c0.54,0.44,0.86,1.02,0.96,1.75
			c0.09,0.46,0.13,1.06,0.13,1.8c0,0.74-0.04,1.34-0.13,1.8c-0.11,0.75-0.43,1.34-0.96,1.78c-0.53,0.43-1.21,0.65-2.05,0.65
			C125.35,169.17,124.66,168.96,124.13,168.52z M127.19,167.47c0.27-0.25,0.44-0.57,0.51-0.98c0.05-0.48,0.08-1,0.08-1.54
			c0-0.56-0.03-1.07-0.08-1.53c-0.06-0.41-0.23-0.73-0.51-0.98c-0.27-0.25-0.61-0.37-1.02-0.37c-0.4,0-0.73,0.12-1,0.37
			c-0.27,0.25-0.44,0.57-0.51,0.98c-0.04,0.38-0.06,0.88-0.06,1.53c0,0.65,0.02,1.17,0.06,1.54c0.06,0.41,0.23,0.73,0.51,0.98
			s0.61,0.37,1.02,0.37C126.58,167.84,126.92,167.72,127.19,167.47z"/>
		<path class="st0" d="M140.76,159.13h-4.66c-0.04,0-0.06,0.02-0.06,0.06v3.47c0,0.04,0.02,0.06,0.06,0.06h3.07
			c0.11,0,0.16,0.05,0.16,0.16v1.01c0,0.11-0.05,0.16-0.16,0.16h-3.07c-0.04,0-0.06,0.02-0.06,0.06v3.52c0,0.04,0.02,0.06,0.06,0.06
			h4.66c0.11,0,0.16,0.05,0.16,0.16v1.01c0,0.11-0.05,0.16-0.16,0.16h-6.11c-0.11,0-0.16-0.05-0.16-0.16v-10.92
			c0-0.11,0.05-0.16,0.16-0.16h6.11c0.11,0,0.16,0.05,0.16,0.16v1.01C140.92,159.08,140.86,159.13,140.76,159.13z"/>
		<path class="st0" d="M143.03,168.53c-0.53-0.41-0.79-0.93-0.79-1.58v-0.16c0-0.11,0.05-0.16,0.16-0.16h1.14
			c0.11,0,0.16,0.05,0.16,0.16v0.1c0,0.29,0.14,0.54,0.42,0.76c0.28,0.21,0.62,0.32,1.03,0.32s0.74-0.1,0.99-0.31
			c0.25-0.2,0.38-0.46,0.38-0.75c0-0.24-0.07-0.43-0.22-0.58c-0.14-0.15-0.32-0.27-0.53-0.36c-0.21-0.09-0.52-0.21-0.92-0.34
			c-0.5-0.16-0.93-0.33-1.28-0.51c-0.35-0.18-0.65-0.43-0.89-0.75c-0.25-0.33-0.37-0.74-0.37-1.25c0-0.72,0.25-1.29,0.76-1.7
			s1.19-0.63,2.03-0.63c0.86,0,1.54,0.21,2.07,0.64c0.52,0.43,0.78,0.99,0.78,1.69v0.03c0,0.11-0.05,0.16-0.16,0.16h-1.12
			c-0.11,0-0.16-0.05-0.16-0.16v-0.06c0-0.31-0.13-0.57-0.39-0.77c-0.26-0.2-0.59-0.31-1.01-0.31c-0.4,0-0.71,0.1-0.96,0.29
			c-0.24,0.19-0.36,0.44-0.36,0.74c0,0.22,0.07,0.41,0.21,0.55c0.14,0.15,0.31,0.27,0.52,0.36c0.21,0.1,0.52,0.21,0.92,0.35
			c0.54,0.18,0.98,0.36,1.33,0.53c0.35,0.17,0.65,0.42,0.91,0.74s0.39,0.73,0.39,1.24c0,0.72-0.26,1.29-0.79,1.7
			c-0.53,0.42-1.23,0.63-2.12,0.63C144.27,169.14,143.56,168.94,143.03,168.53z"/>
		<path class="st0" d="M153.02,162.06h-1.43c-0.04,0-0.06,0.02-0.06,0.06v4.4c0,0.44,0.09,0.75,0.26,0.92s0.45,0.26,0.83,0.26h0.3
			c0.11,0,0.16,0.05,0.16,0.16v1.01c0,0.11-0.05,0.16-0.16,0.16l-0.63,0.02c-0.75,0-1.31-0.14-1.69-0.43
			c-0.38-0.28-0.57-0.81-0.57-1.58v-4.93c0-0.04-0.02-0.06-0.06-0.06h-0.79c-0.11,0-0.16-0.05-0.16-0.16v-0.87
			c0-0.11,0.05-0.16,0.16-0.16h0.79c0.04,0,0.06-0.02,0.06-0.06v-1.85c0-0.11,0.05-0.16,0.16-0.16h1.17c0.11,0,0.16,0.05,0.16,0.16
			v1.85c0,0.04,0.02,0.06,0.06,0.06h1.43c0.11,0,0.16,0.05,0.16,0.16v0.87C153.18,162,153.12,162.06,153.02,162.06z"/>
		<path class="st0" d="M159.68,161.48c0.54,0.5,0.8,1.15,0.8,1.95v5.45c0,0.11-0.05,0.16-0.16,0.16h-1.22
			c-0.11,0-0.16-0.05-0.16-0.16v-0.47c0-0.02-0.01-0.03-0.02-0.04c-0.02,0-0.03,0-0.06,0.02c-0.48,0.51-1.15,0.77-2.01,0.77
			c-0.7,0-1.29-0.19-1.78-0.57c-0.49-0.38-0.74-0.99-0.74-1.84c0-0.88,0.29-1.54,0.86-2c0.57-0.46,1.35-0.68,2.34-0.68h1.35
			c0.04,0,0.06-0.02,0.06-0.06v-0.45c0-0.46-0.12-0.83-0.36-1.09s-0.59-0.4-1.04-0.4c-0.35,0-0.65,0.09-0.88,0.26
			s-0.37,0.42-0.43,0.71c-0.01,0.1-0.07,0.14-0.18,0.14l-1.32-0.08c-0.04,0-0.08-0.01-0.11-0.04c-0.03-0.03-0.04-0.06-0.03-0.1
			c0.06-0.66,0.37-1.2,0.91-1.61c0.54-0.41,1.22-0.62,2.03-0.62C158.44,160.74,159.15,160.99,159.68,161.48z M158.42,167.45
			c0.35-0.27,0.52-0.63,0.52-1.08v-1.03c0-0.04-0.02-0.06-0.06-0.06h-1.24c-0.52,0-0.95,0.12-1.26,0.35
			c-0.32,0.24-0.47,0.58-0.47,1.03c0,0.4,0.12,0.69,0.35,0.89c0.24,0.2,0.55,0.3,0.93,0.3
			C157.66,167.86,158.07,167.72,158.42,167.45z"/>
		<path class="st0" d="M166.85,157.8h1.22c0.11,0,0.16,0.05,0.16,0.16v10.92c0,0.11-0.05,0.16-0.16,0.16h-1.22
			c-0.11,0-0.16-0.05-0.16-0.16v-0.55c0-0.02-0.01-0.04-0.03-0.05s-0.04-0.01-0.05,0.02c-0.39,0.58-0.99,0.87-1.82,0.87
			c-0.67,0-1.2-0.19-1.61-0.58s-0.71-0.98-0.9-1.78c-0.13-0.56-0.19-1.17-0.19-1.83c0-0.69,0.05-1.3,0.16-1.83
			c0.32-1.61,1.19-2.41,2.62-2.41c0.42,0,0.77,0.07,1.04,0.21c0.28,0.14,0.51,0.35,0.69,0.63c0.02,0.02,0.04,0.03,0.06,0.03
			c0.02,0,0.02-0.02,0.02-0.05v-3.6C166.69,157.85,166.74,157.8,166.85,157.8z M166.67,164.95c0-0.8-0.08-1.41-0.23-1.83
			c-0.1-0.34-0.24-0.6-0.44-0.78s-0.46-0.26-0.78-0.26c-0.63,0-1.07,0.34-1.32,1.01c-0.17,0.48-0.26,1.1-0.26,1.86
			c0,0.77,0.07,1.37,0.21,1.78c0.23,0.74,0.67,1.11,1.35,1.11c0.62,0,1.04-0.36,1.25-1.08C166.6,166.33,166.67,165.73,166.67,164.95
			z"/>
		<path class="st0" d="M171.11,168.52c-0.54-0.43-0.86-1.03-0.96-1.78c-0.09-0.54-0.13-1.13-0.13-1.8c0-0.67,0.04-1.27,0.13-1.78
			c0.11-0.74,0.43-1.33,0.96-1.77c0.54-0.44,1.22-0.66,2.06-0.66c0.82,0,1.5,0.22,2.04,0.66c0.54,0.44,0.86,1.02,0.96,1.75
			c0.09,0.46,0.13,1.06,0.13,1.8c0,0.74-0.04,1.34-0.13,1.8c-0.11,0.75-0.43,1.34-0.96,1.78c-0.53,0.43-1.21,0.65-2.05,0.65
			C172.33,169.17,171.64,168.96,171.11,168.52z M174.17,167.47c0.27-0.25,0.44-0.57,0.51-0.98c0.05-0.48,0.08-1,0.08-1.54
			c0-0.56-0.03-1.07-0.08-1.53c-0.06-0.41-0.23-0.73-0.51-0.98c-0.27-0.25-0.61-0.37-1.02-0.37c-0.4,0-0.73,0.12-1,0.37
			c-0.27,0.25-0.44,0.57-0.51,0.98c-0.04,0.38-0.06,0.88-0.06,1.53c0,0.65,0.02,1.17,0.06,1.54c0.06,0.41,0.23,0.73,0.51,0.98
			s0.61,0.37,1.02,0.37C173.56,167.84,173.89,167.72,174.17,167.47z"/>
		<path class="st0" d="M185.84,157.8h1.22c0.11,0,0.16,0.05,0.16,0.16v10.92c0,0.11-0.05,0.16-0.16,0.16h-1.22
			c-0.11,0-0.16-0.05-0.16-0.16v-0.55c0-0.02-0.01-0.04-0.03-0.05s-0.04-0.01-0.05,0.02c-0.39,0.58-0.99,0.87-1.82,0.87
			c-0.67,0-1.2-0.19-1.61-0.58s-0.71-0.98-0.9-1.78c-0.13-0.56-0.19-1.17-0.19-1.83c0-0.69,0.05-1.3,0.16-1.83
			c0.32-1.61,1.19-2.41,2.62-2.41c0.42,0,0.77,0.07,1.04,0.21c0.28,0.14,0.51,0.35,0.69,0.63c0.02,0.02,0.04,0.03,0.06,0.03
			c0.02,0,0.02-0.02,0.02-0.05v-3.6C185.68,157.85,185.73,157.8,185.84,157.8z M185.66,164.95c0-0.8-0.08-1.41-0.23-1.83
			c-0.1-0.34-0.24-0.6-0.44-0.78s-0.46-0.26-0.78-0.26c-0.63,0-1.07,0.34-1.32,1.01c-0.17,0.48-0.26,1.1-0.26,1.86
			c0,0.77,0.07,1.37,0.21,1.78c0.23,0.74,0.67,1.11,1.35,1.11c0.62,0,1.04-0.36,1.25-1.08
			C185.59,166.33,185.66,165.73,185.66,164.95z"/>
		<path class="st0" d="M193.09,167.57c0.25-0.18,0.44-0.42,0.57-0.73c0.03-0.1,0.1-0.13,0.19-0.11l1.09,0.24
			c0.11,0.03,0.15,0.1,0.11,0.19c-0.2,0.63-0.56,1.12-1.06,1.48c-0.5,0.35-1.12,0.53-1.85,0.53c-0.84,0-1.51-0.21-2.02-0.63
			c-0.51-0.42-0.84-0.99-0.98-1.72c-0.05-0.3-0.09-0.62-0.1-0.96c-0.02-0.34-0.02-0.79-0.02-1.34c0-0.55,0.03-0.98,0.08-1.3
			c0.1-0.75,0.41-1.35,0.95-1.81c0.54-0.46,1.21-0.68,2.02-0.68c0.89,0,1.61,0.25,2.15,0.75c0.55,0.5,0.85,1.17,0.92,1.99
			c0.03,0.36,0.05,1.03,0.05,2.01c0,0.11-0.05,0.16-0.16,0.16h-4.4c-0.04,0-0.06,0.02-0.06,0.06c0,0.3,0.02,0.56,0.05,0.79
			c0.05,0.4,0.22,0.72,0.5,0.96s0.63,0.37,1.06,0.37C192.53,167.84,192.84,167.75,193.09,167.57z M191.09,162.44
			c-0.26,0.25-0.42,0.57-0.47,0.96c-0.03,0.29-0.05,0.61-0.05,0.95c0,0.04,0.02,0.06,0.06,0.06h2.96c0.04,0,0.06-0.02,0.06-0.06
			c-0.02-0.43-0.04-0.74-0.06-0.93c-0.05-0.4-0.21-0.72-0.48-0.97c-0.27-0.25-0.6-0.38-1.01-0.38S191.35,162.19,191.09,162.44z"/>
		<path class="st0" d="M200.94,168.28c-0.62-0.59-0.93-1.38-0.93-2.35v-5.01c0-0.97,0.31-1.76,0.93-2.35
			c0.62-0.59,1.44-0.89,2.46-0.89c0.67,0,1.27,0.13,1.78,0.39c0.51,0.26,0.91,0.63,1.2,1.12c0.28,0.48,0.43,1.03,0.43,1.64v0.43
			c0,0.11-0.05,0.16-0.16,0.16h-1.22c-0.11,0-0.16-0.05-0.16-0.16v-0.43c0-0.54-0.17-0.97-0.51-1.31c-0.34-0.34-0.79-0.51-1.36-0.51
			c-0.56,0-1.01,0.17-1.35,0.52c-0.34,0.35-0.51,0.8-0.51,1.36v5.08c0,0.56,0.17,1.01,0.52,1.36c0.35,0.35,0.81,0.52,1.37,0.52
			c0.56,0,1-0.16,1.33-0.48c0.33-0.32,0.5-0.76,0.5-1.3v-1.49c0-0.04-0.02-0.06-0.06-0.06h-1.69c-0.11,0-0.16-0.05-0.16-0.16v-1
			c0-0.11,0.05-0.16,0.16-0.16h3.13c0.11,0,0.16,0.05,0.16,0.16v2.51c0,1.04-0.31,1.85-0.92,2.44c-0.62,0.59-1.44,0.88-2.48,0.88
			C202.38,169.17,201.56,168.88,200.94,168.28z"/>
		<path class="st0" d="M209.51,168.52c-0.54-0.43-0.86-1.03-0.96-1.78c-0.09-0.54-0.13-1.13-0.13-1.8c0-0.67,0.04-1.27,0.13-1.78
			c0.11-0.74,0.43-1.33,0.96-1.77c0.54-0.44,1.22-0.66,2.06-0.66c0.82,0,1.5,0.22,2.04,0.66c0.54,0.44,0.86,1.02,0.96,1.75
			c0.09,0.46,0.13,1.06,0.13,1.8c0,0.74-0.04,1.34-0.13,1.8c-0.11,0.75-0.43,1.34-0.96,1.78c-0.53,0.43-1.21,0.65-2.05,0.65
			C210.73,169.17,210.04,168.96,209.51,168.52z M212.57,167.47c0.27-0.25,0.44-0.57,0.51-0.98c0.05-0.48,0.08-1,0.08-1.54
			c0-0.56-0.03-1.07-0.08-1.53c-0.06-0.41-0.23-0.73-0.51-0.98c-0.27-0.25-0.61-0.37-1.02-0.37c-0.4,0-0.73,0.12-1,0.37
			c-0.27,0.25-0.44,0.57-0.51,0.98c-0.04,0.38-0.06,0.88-0.06,1.53c0,0.65,0.02,1.17,0.06,1.54c0.06,0.41,0.23,0.73,0.51,0.98
			s0.61,0.37,1.02,0.37C211.96,167.84,212.29,167.72,212.57,167.47z"/>
		<path class="st0" d="M216.64,159.29c-0.19-0.19-0.29-0.44-0.29-0.74c0-0.31,0.1-0.56,0.29-0.75c0.19-0.19,0.44-0.28,0.74-0.28
			s0.55,0.1,0.74,0.29c0.19,0.19,0.29,0.44,0.29,0.74s-0.1,0.55-0.3,0.74c-0.2,0.19-0.44,0.29-0.73,0.29
			C217.08,159.58,216.83,159.48,216.64,159.29z M216.59,168.88v-7.86c0-0.11,0.05-0.16,0.16-0.16h1.22c0.11,0,0.16,0.05,0.16,0.16
			v7.86c0,0.11-0.05,0.16-0.16,0.16h-1.22C216.65,169.04,216.59,168.99,216.59,168.88z"/>
		<path class="st0" d="M225.17,161.48c0.54,0.5,0.8,1.15,0.8,1.95v5.45c0,0.11-0.05,0.16-0.16,0.16h-1.22
			c-0.11,0-0.16-0.05-0.16-0.16v-0.47c0-0.02-0.01-0.03-0.02-0.04c-0.02,0-0.03,0-0.06,0.02c-0.48,0.51-1.15,0.77-2.01,0.77
			c-0.7,0-1.29-0.19-1.78-0.57c-0.49-0.38-0.74-0.99-0.74-1.84c0-0.88,0.29-1.54,0.86-2c0.57-0.46,1.35-0.68,2.34-0.68h1.35
			c0.04,0,0.06-0.02,0.06-0.06v-0.45c0-0.46-0.12-0.83-0.36-1.09s-0.59-0.4-1.04-0.4c-0.35,0-0.65,0.09-0.88,0.26
			s-0.37,0.42-0.43,0.71c-0.01,0.1-0.07,0.14-0.18,0.14l-1.32-0.08c-0.04,0-0.08-0.01-0.11-0.04c-0.03-0.03-0.04-0.06-0.03-0.1
			c0.06-0.66,0.37-1.2,0.91-1.61c0.54-0.41,1.22-0.62,2.03-0.62C223.92,160.74,224.63,160.99,225.17,161.48z M223.91,167.45
			c0.35-0.27,0.52-0.63,0.52-1.08v-1.03c0-0.04-0.02-0.06-0.06-0.06h-1.24c-0.52,0-0.95,0.12-1.26,0.35
			c-0.32,0.24-0.47,0.58-0.47,1.03c0,0.4,0.12,0.69,0.35,0.89c0.24,0.2,0.55,0.3,0.93,0.3
			C223.15,167.86,223.56,167.72,223.91,167.45z M222.21,159.78c-0.02-0.04-0.02-0.08,0.02-0.14l0.95-1.73
			c0.03-0.08,0.1-0.11,0.19-0.11h1.03c0.06,0,0.11,0.02,0.13,0.06c0.02,0.04,0.02,0.08-0.02,0.14l-1.16,1.75
			c-0.05,0.06-0.12,0.1-0.19,0.1h-0.82C222.28,159.84,222.24,159.82,222.21,159.78z"/>
		<path class="st0" d="M228.26,168.53c-0.53-0.41-0.79-0.93-0.79-1.58v-0.16c0-0.11,0.05-0.16,0.16-0.16h1.14
			c0.11,0,0.16,0.05,0.16,0.16v0.1c0,0.29,0.14,0.54,0.42,0.76c0.28,0.21,0.62,0.32,1.03,0.32s0.74-0.1,0.99-0.31
			c0.25-0.2,0.38-0.46,0.38-0.75c0-0.24-0.07-0.43-0.22-0.58c-0.14-0.15-0.32-0.27-0.53-0.36c-0.21-0.09-0.52-0.21-0.92-0.34
			c-0.5-0.16-0.93-0.33-1.28-0.51c-0.35-0.18-0.65-0.43-0.89-0.75c-0.25-0.33-0.37-0.74-0.37-1.25c0-0.72,0.25-1.29,0.76-1.7
			s1.19-0.63,2.03-0.63c0.86,0,1.54,0.21,2.07,0.64c0.52,0.43,0.78,0.99,0.78,1.69v0.03c0,0.11-0.05,0.16-0.16,0.16h-1.12
			c-0.11,0-0.16-0.05-0.16-0.16v-0.06c0-0.31-0.13-0.57-0.39-0.77c-0.26-0.2-0.59-0.31-1.01-0.31c-0.4,0-0.71,0.1-0.96,0.29
			c-0.24,0.19-0.36,0.44-0.36,0.74c0,0.22,0.07,0.41,0.21,0.55c0.14,0.15,0.31,0.27,0.52,0.36c0.21,0.1,0.52,0.21,0.92,0.35
			c0.54,0.18,0.98,0.36,1.33,0.53c0.35,0.17,0.65,0.42,0.91,0.74s0.39,0.73,0.39,1.24c0,0.72-0.26,1.29-0.79,1.7
			c-0.53,0.42-1.23,0.63-2.12,0.63C229.5,169.14,228.79,168.94,228.26,168.53z"/>
	</g>
</g>
</svg>
